<?xml version="1.0" encoding="UTF-8"?>
<svg version="1.1" xmlns="http://www.w3.org/2000/svg" width="307" height="112">
<path d="M0 0 C1.75635411 0.01496902 3.51266438 0.03565318 5.26890564 0.06056213 C6.70289955 0.07497345 6.70289955 0.07497345 8.16586304 0.0896759 C11.34212824 0.12279347 14.5182613 0.1630769 17.69444275 0.2033844 C19.89019294 0.22767306 22.08594809 0.25151723 24.28170776 0.27493286 C30.0735385 0.3378986 35.86528194 0.40692964 41.6570282 0.47718811 C47.56203724 0.54775906 53.46710841 0.61264317 59.37217712 0.67799377 C70.9679485 0.80716699 82.56363566 0.94274244 94.1592865 1.08229065 C94.32434463 4.72893611 94.48678397 8.3756939 94.64878845 12.0224762 C94.69507637 13.04441826 94.74136429 14.06636032 94.78905487 15.11927032 C95.16883712 23.71440435 95.3424431 32.29051609 95.3467865 40.89479065 C95.35900659 42.26653678 95.3713767 43.63828159 95.38389587 45.01002502 C95.38582947 46.29844299 95.38776306 47.58686096 95.38975525 48.9143219 C95.39386414 50.05618958 95.39797302 51.19805725 95.40220642 52.37452698 C95.1592865 55.08229065 95.1592865 55.08229065 93.1592865 57.08229065 C91.34980774 57.36076355 91.34980774 57.36076355 89.12559509 57.40113831 C88.28690887 57.42099792 87.44822266 57.44085754 86.5841217 57.46131897 C85.66791046 57.47288025 84.75169922 57.48444153 83.807724 57.49635315 C82.85356598 57.51580994 81.89940796 57.53526672 80.91633606 57.55531311 C77.78907798 57.61608011 74.66180715 57.6622113 71.5342865 57.70729065 C69.38291156 57.74444238 67.23154432 57.78204203 65.08018494 57.82008362 C52.85750445 58.0263284 40.63371816 58.17541271 28.4092865 58.20729065 C27.22641052 58.2119635 26.04353455 58.21663635 24.82481384 58.22145081 C14.91575258 58.20328443 5.04819878 57.66220415 -4.8407135 57.08229065 C-4.86384266 49.79807517 -4.88163151 42.51386755 -4.89252567 35.22962284 C-4.89775325 31.84757252 -4.90484861 28.46554725 -4.91615295 25.08351135 C-4.92905617 21.19899288 -4.93394274 17.31448468 -4.93836975 13.4299469 C-4.94353104 12.21017654 -4.94869232 10.99040619 -4.95401001 9.7336731 C-4.95408554 8.61258652 -4.95416107 7.49149994 -4.95423889 6.33644104 C-4.9564595 5.34382767 -4.95868011 4.35121429 -4.96096802 3.32852173 C-4.75418932 -0.53389242 -4.07088158 0.0872222 0 0 Z " fill="#FBFCFB" transform="translate(152.84071350097656,7.9177093505859375)"/>
<path d="M0 0 C1.32 0 2.64 0 4 0 C4 0.99 4 1.98 4 3 C3.01 3.495 3.01 3.495 2 4 C1.34444881 6.52733235 1.34444881 6.52733235 1 9 C2.65 9 4.3 9 6 9 C6.33 8.01 6.66 7.02 7 6 C8.32 6.33 9.64 6.66 11 7 C11 7.66 11 8.32 11 9 C16.28 9 21.56 9 27 9 C26.67 7.02 26.34 5.04 26 3 C25.34 2.67 24.68 2.34 24 2 C32.58 2 41.16 2 50 2 C51.37365621 4.74731243 51.0128639 6.81667064 50.87890625 9.8828125 C50.83056641 11.04941406 50.78222656 12.21601562 50.73242188 13.41796875 C50.67634766 14.64128906 50.62027344 15.86460938 50.5625 17.125 C50.51029297 18.35605469 50.45808594 19.58710937 50.40429688 20.85546875 C50.2743256 23.90388588 50.13934981 26.9519995 50 30 C49.01 30 48.02 30 47 30 C45.23537317 26.91190305 45 25.76687864 45 22 C44.01 22.33 43.02 22.66 42 23 C41.505 25.475 41.505 25.475 41 28 C40.34 28 39.68 28 39 28 C38.34 29.98 37.68 31.96 37 34 C36.2886792 34.02505615 35.5773584 34.0501123 34.84448242 34.07592773 C31.62530483 34.19188439 28.40642015 34.31461245 25.1875 34.4375 C24.06794922 34.47681641 22.94839844 34.51613281 21.79492188 34.55664062 C20.72177734 34.59853516 19.64863281 34.64042969 18.54296875 34.68359375 C17.0583313 34.73858032 17.0583313 34.73858032 15.54370117 34.79467773 C12.8781649 34.90790331 12.8781649 34.90790331 10 36 C10 35.34 10 34.68 10 34 C3.565 34.495 3.565 34.495 -3 35 C-2.67 33.35 -2.34 31.7 -2 30 C-1.78301513 27.56494763 -1.59709255 25.12698616 -1.4375 22.6875 C-1.35371094 21.43324219 -1.26992187 20.17898437 -1.18359375 18.88671875 C-1.12300781 17.93410156 -1.06242188 16.98148438 -1 16 C-1.99 15.67 -2.98 15.34 -4 15 C-3.34 14.67 -2.68 14.34 -2 14 C-1.53193355 11.66255706 -1.17330206 9.30260921 -0.875 6.9375 C-0.70742187 5.64714844 -0.53984375 4.35679688 -0.3671875 3.02734375 C-0.24601563 2.02832031 -0.12484375 1.02929688 0 0 Z " fill="#DEC06A" transform="translate(163,20)"/>
<path d="M0 0 C2.31 0 4.62 0 7 0 C7.33 5.61 7.66 11.22 8 17 C9.32 17 10.64 17 12 17 C13.94090826 15.05909174 13.39919435 11.52706098 13.5625 8.9375 C13.64628906 7.64714844 13.73007813 6.35679688 13.81640625 5.02734375 C13.87699219 4.02832031 13.93757813 3.02929688 14 2 C13.01 2 12.02 2 11 2 C11 1.34 11 0.68 11 0 C17.15234375 -0.09765625 17.15234375 -0.09765625 19 0 C21.11925604 2.11925604 20.41831017 6.6196093 20.5625 9.5625 C20.60568359 10.36880859 20.64886719 11.17511719 20.69335938 12.00585938 C20.79975262 14.00368805 20.90040888 16.0018207 21 18 C22.32 18 23.64 18 25 18 C25 13.05 25 8.1 25 3 C24.34 2.67 23.68 2.34 23 2 C23 1.34 23 0.68 23 0 C27.92957259 -0.07414321 32.85882081 -0.12859817 37.78881836 -0.16479492 C39.4659592 -0.17988384 41.14306057 -0.20035748 42.82006836 -0.22631836 C45.23040504 -0.26269811 47.64022019 -0.27972486 50.05078125 -0.29296875 C50.80087967 -0.30845261 51.55097809 -0.32393646 52.32380676 -0.33988953 C57.52527474 -0.34157206 57.52527474 -0.34157206 59.95410156 1.40600586 C62.38813707 5.11558051 62.10951694 8.92444144 62.0625 13.25 C62.05347656 14.32765625 62.04445312 15.4053125 62.03515625 16.515625 C62.02355469 17.33546875 62.01195312 18.1553125 62 19 C62.66 19 63.32 19 64 19 C64 19.66 64 20.32 64 21 C60.37 21 56.74 21 53 21 C53 20.34 53 19.68 53 19 C53.66 18.67 54.32 18.34 55 18 C55.02693575 15.87506859 55.04636628 13.75004088 55.0625 11.625 C55.07410156 10.44164062 55.08570313 9.25828125 55.09765625 8.0390625 C55.21466593 5.08078479 55.21466593 5.08078479 54 3 C52.35 3.33 50.7 3.66 49 4 C49 8.62 49 13.24 49 18 C49.66 18.33 50.32 18.66 51 19 C51 19.66 51 20.32 51 21 C47.37 21 43.74 21 40 21 C40 20.34 40 19.68 40 19 C40.66 19 41.32 19 42 19 C42 13.39 42 7.78 42 2 C41.34 2 40.68 2 40 2 C39.67 3.32 39.34 4.64 39 6 C37.35 6 35.7 6 34 6 C34 5.34 34 4.68 34 4 C33.34 4.33 32.68 4.66 32 5 C32 9.29 32 13.58 32 18 C33.32 18.33 34.64 18.66 36 19 C36 19.66 36 20.32 36 21 C31.64009127 21.07418046 27.28051721 21.12861544 22.92016602 21.16479492 C21.43702801 21.17987768 19.95393456 21.20034689 18.47094727 21.22631836 C16.33859255 21.26272616 14.20682765 21.27973073 12.07421875 21.29296875 C10.79119873 21.3086792 9.50817871 21.32438965 8.1862793 21.34057617 C5 21 5 21 3.08544922 19.70068359 C1.27822511 16.86912194 1.50232083 13.70014839 1.4375 10.4375 C1.58170078 5.23825583 1.58170078 5.23825583 -1 1 C-0.67 0.67 -0.34 0.34 0 0 Z " fill="#010304" transform="translate(79,33)"/>
<path d="M0 0 C1.65515625 0.13535156 1.65515625 0.13535156 3.34375 0.2734375 C6.5 0.625 6.5 0.625 8.78613281 1.12939453 C11.91093626 1.70004504 14.902726 1.82190767 18.078125 1.90625 C19.94210938 1.96232422 19.94210938 1.96232422 21.84375 2.01953125 C24.46353032 2.09026532 27.08332219 2.16057283 29.703125 2.23046875 C31.559375 2.28654297 31.559375 2.28654297 33.453125 2.34375 C35.15710449 2.38918945 35.15710449 2.38918945 36.89550781 2.43554688 C39.5 2.625 39.5 2.625 40.5 3.625 C40.73363881 5.47391946 40.91303635 7.32988031 41.0625 9.1875 C41.14628906 10.19941406 41.23007813 11.21132813 41.31640625 12.25390625 C41.37699219 13.03636719 41.43757813 13.81882812 41.5 14.625 C41.83 13.965 42.16 13.305 42.5 12.625 C43.49 12.625 44.48 12.625 45.5 12.625 C48.72265625 17.8984375 48.72265625 17.8984375 49.5 19.625 C49.17 20.285 48.84 20.945 48.5 21.625 C48.5 24.10175731 49.0022763 26.32359695 49.5 28.75 C49.995 31.163125 49.995 31.163125 50.5 33.625 C52.975 29.17 52.975 29.17 55.5 24.625 C56.16 24.625 56.82 24.625 57.5 24.625 C59.15 28.255 60.8 31.885 62.5 35.625 C50.29 35.625 38.08 35.625 25.5 35.625 C26.16 33.645 26.82 31.665 27.5 29.625 C28.16 29.625 28.82 29.625 29.5 29.625 C29.5 27.975 29.5 26.325 29.5 24.625 C30.82 24.295 32.14 23.965 33.5 23.625 C34.49 26.265 35.48 28.905 36.5 31.625 C36.83 31.625 37.16 31.625 37.5 31.625 C37.66728775 27.3333573 37.83372541 23.04168206 38 18.75 C38.04769531 17.52667969 38.09539062 16.30335937 38.14453125 15.04296875 C38.18964844 13.87636719 38.23476562 12.70976562 38.28125 11.5078125 C38.3440918 9.88963623 38.3440918 9.88963623 38.40820312 8.23876953 C38.46219315 6.70148977 38.5 5.16322755 38.5 3.625 C30.58 3.955 22.66 4.285 14.5 4.625 C14.83 6.605 15.16 8.585 15.5 10.625 C10.22 10.625 4.94 10.625 -0.5 10.625 C-0.83 9.965 -1.16 9.305 -1.5 8.625 C-2.49 8.625 -3.48 8.625 -4.5 8.625 C-4.83 9.285 -5.16 9.945 -5.5 10.625 C-7.15 10.625 -8.8 10.625 -10.5 10.625 C-10.5 8.975 -10.5 7.325 -10.5 5.625 C-9.51 5.295 -8.52 4.965 -7.5 4.625 C-7.5 3.635 -7.5 2.645 -7.5 1.625 C-8.82 1.295 -10.14 0.965 -11.5 0.625 C-7.5088511 -0.37278722 -4.08924111 -0.35350916 0 0 Z " fill="#FBE8D7" transform="translate(174.5,18.375)"/>
<path d="M0 0 C2.95839355 -0.02689449 5.91654427 -0.04678741 8.875 -0.0625 C9.71675781 -0.07087891 10.55851563 -0.07925781 11.42578125 -0.08789062 C12.23144531 -0.09111328 13.03710938 -0.09433594 13.8671875 -0.09765625 C14.98262939 -0.10551147 14.98262939 -0.10551147 16.12060547 -0.11352539 C18 0 18 0 20 1 C19.67 9.58 19.34 18.16 19 27 C18.01 27 17.02 27 16 27 C14.23537317 23.91190305 14 22.76687864 14 19 C13.01 19.33 12.02 19.66 11 20 C10.67 21.65 10.34 23.3 10 25 C9.34 25 8.68 25 8 25 C7.67 26.32 7.34 27.64 7 29 C6.34 29 5.68 29 5 29 C3.6728739 25.0186217 3.93084087 21.14954773 4 17 C4.66 16.67 5.32 16.34 6 16 C6.65213292 13.97536745 6.65213292 13.97536745 7 12 C6.01 12 5.02 12 4 12 C4 11.01 4 10.02 4 9 C3.34 9 2.68 9 2 9 C0.50178941 5.62902617 0 3.79557881 0 0 Z " fill="#F6C829" transform="translate(194,23)"/>
<path d="M0 0 C4.95 0 9.9 0 15 0 C15 4.98887899 14.34552782 6.79759598 12 11 C9.98177083 10.70703125 7.96354167 10.4140625 5.9453125 10.12109375 C3.91859333 9.8315703 3.91859333 9.8315703 2 11 C3.12534105 12.35618499 3.12534105 12.35618499 6.0625 12.0625 C7.031875 12.041875 8.00125 12.02125 9 12 C9 12.66 9 13.32 9 14 C9.99 14.33 10.98 14.66 12 15 C12 16.98 12 18.96 12 21 C10.046875 20.93489583 8.09375 20.86979167 6.140625 20.8046875 C3.96355374 20.8644018 3.96355374 20.8644018 2.12109375 21.99609375 C-0.72962709 23.34532995 -3.05006704 23.22953625 -6.1875 23.1875 C-7.25355469 23.18105469 -8.31960937 23.17460938 -9.41796875 23.16796875 C-12 23 -12 23 -13 22 C-13.07319621 19.30345146 -13.09242537 16.63308542 -13.0625 13.9375 C-13.05798828 13.17888672 -13.05347656 12.42027344 -13.04882812 11.63867188 C-13.0370068 9.75908129 -13.01907078 7.87953101 -13 6 C-13.99 5.67 -14.98 5.34 -16 5 C-14.35 5 -12.7 5 -11 5 C-9 10.75 -9 10.75 -9 13 C-5.535 12.505 -5.535 12.505 -2 12 C-2 11.01 -2 10.02 -2 9 C2.22222222 6 2.22222222 6 5 6 C5 5.34 5 4.68 5 4 C2.525 3.505 2.525 3.505 0 3 C0 2.01 0 1.02 0 0 Z " fill="#ED5228" transform="translate(175,30)"/>
<path d="M0 0 C0 3.96 0 7.92 0 12 C0.66 11.67 1.32 11.34 2 11 C9.28323699 10.53757225 9.28323699 10.53757225 11.9375 12.25 C14.2500596 16.0589217 14.10996326 19.88338006 14.0625 24.25 C14.05347656 25.32765625 14.04445313 26.4053125 14.03515625 27.515625 C14.02355469 28.33546875 14.01195313 29.1553125 14 30 C14.66 30 15.32 30 16 30 C16 30.66 16 31.32 16 32 C12.37 32 8.74 32 5 32 C5 31.34 5 30.68 5 30 C5.66 29.67 6.32 29.34 7 29 C7 24.38 7 19.76 7 15 C3.85938975 13.65486576 3.85938975 13.65486576 0 15 C0.33 19.62 0.66 24.24 1 29 C1.99 29.33 2.98 29.66 4 30 C4 30.66 4 31.32 4 32 C0.04 32 -3.92 32 -8 32 C-8 31.34 -8 30.68 -8 30 C-7.34 29.67 -6.68 29.34 -6 29 C-6 21.08 -6 13.16 -6 5 C-6.66 4.67 -7.32 4.34 -8 4 C-8 3.34 -8 2.68 -8 2 C-4.91190305 0.23537317 -3.76687864 0 0 0 Z " fill="#010203" transform="translate(62,22)"/>
<path d="M0 0 C3.48505933 1.88193204 4.61466252 2.92105506 5.9375 6.625 C5.958125 7.40875 5.97875 8.1925 6 9 C4 11 4 11 1.375 11.125 C0.59125 11.08375 -0.1925 11.0425 -1 11 C-1.33 8.69 -1.66 6.38 -2 4 C-4.72321308 3.24355192 -6.45808824 2.82968488 -9.1875 3.6875 C-11.40728344 5.29492939 -11.98383968 6.46179869 -13 9 C-13.60763524 14.91550776 -13.38390812 20.48721247 -11 26 C-6.28601302 26.97529844 -6.28601302 26.97529844 -1.625 26.25 C0.309697 25.00281178 0.309697 25.00281178 1 22 C2.65 22 4.3 22 6 22 C5.12800528 24.93307315 4.31296033 26.70723066 2.0625 28.8125 C-2.62880071 30.63157579 -7.0363466 30.64141189 -12 30 C-16.18365004 28.13229909 -17.59272556 26.70594237 -19.875 22.75 C-21.51031937 17.29893542 -21.84850063 13.20610165 -19.75 7.75 C-14.70333727 -0.18047001 -8.96079313 -0.94324138 0 0 Z " fill="#010203" transform="translate(46,24)"/>
<path d="M0 0 C1.32 0 2.64 0 4 0 C4 0.99 4 1.98 4 3 C3.01 3.495 3.01 3.495 2 4 C1.34444881 6.52733235 1.34444881 6.52733235 1 9 C2.65 9 4.3 9 6 9 C6.33 8.01 6.66 7.02 7 6 C8.32 6.33 9.64 6.66 11 7 C11 7.66 11 8.32 11 9 C16.28 9 21.56 9 27 9 C27 8.34 27 7.68 27 7 C27.66 7 28.32 7 29 7 C28.67 10.96 28.34 14.92 28 19 C27.34 19 26.68 19 26 19 C25.67 20.65 25.34 22.3 25 24 C23.68 24 22.36 24 21 24 C21 23.34 21 22.68 21 22 C19.02 22 17.04 22 15 22 C14.67 22.66 14.34 23.32 14 24 C14 22.68 14 21.36 14 20 C18.05431692 18.84162374 20.21812119 19.16308743 24 21 C24.12375 20.29875 24.2475 19.5975 24.375 18.875 C25.03035014 15.86038936 26.02443037 12.9267089 27 10 C22.05 10 17.1 10 12 10 C12 10.99 12 11.98 12 13 C13.65 13.33 15.3 13.66 17 14 C17 14.66 17 15.32 17 16 C12.61538462 19 12.61538462 19 10 19 C10 19.99 10 20.98 10 22 C7.69 22.33 5.38 22.66 3 23 C2.731875 21.88625 2.46375 20.7725 2.1875 19.625 C1.34190981 15.78159049 1.34190981 15.78159049 -2 14 C-1.34 9.38 -0.68 4.76 0 0 Z " fill="#EDCA4E" transform="translate(163,20)"/>
<path d="M0 0 C1.0725 0.763125 2.145 1.52625 3.25 2.3125 C3.58 4.2925 3.91 6.2725 4.25 8.3125 C-1.03 8.3125 -6.31 8.3125 -11.75 8.3125 C-12.08 7.6525 -12.41 6.9925 -12.75 6.3125 C-13.74 6.3125 -14.73 6.3125 -15.75 6.3125 C-16.08 6.9725 -16.41 7.6325 -16.75 8.3125 C-18.4 8.3125 -20.05 8.3125 -21.75 8.3125 C-21.75 6.6625 -21.75 5.0125 -21.75 3.3125 C-20.76 2.9825 -19.77 2.6525 -18.75 2.3125 C-18.75 1.3225 -18.75 0.3325 -18.75 -0.6875 C-20.07 -1.0175 -21.39 -1.3475 -22.75 -1.6875 C-15.38420381 -3.47770278 -6.99274051 -3.03482409 0 0 Z " fill="#DAD7F6" transform="translate(185.75,20.6875)"/>
<path d="M0 0 C2.3125 0.0625 2.3125 0.0625 5 1 C7.3125 4.0625 7.3125 4.0625 9 7 C9 5.02 9 3.04 9 1 C12.01031744 0.06576355 12.86650268 -0.04449911 16 1 C15.67 6.28 15.34 11.56 15 17 C13.35 17 11.7 17 10 17 C7.6875 14 7.6875 14 6 11 C6 12.98 6 14.96 6 17 C3.69 17 1.38 17 -1 17 C-1.02684679 14.35409986 -1.04676357 11.70846904 -1.0625 9.0625 C-1.07087891 8.30775391 -1.07925781 7.55300781 -1.08789062 6.77539062 C-1.09652441 4.85005687 -1.05224333 2.92464419 -1 1 C-0.67 0.67 -0.34 0.34 0 0 Z " fill="#020406" transform="translate(178,70)"/>
<path d="M0 0 C2.60526888 2.60526888 3.34134224 5.17939234 4.625 8.625 C5.07101563 9.81351563 5.51703125 11.00203125 5.9765625 12.2265625 C6.31429687 13.14179687 6.65203125 14.05703125 7 15 C8.65 12.03 10.3 9.06 12 6 C12.66 6 13.32 6 14 6 C16.475 11.445 16.475 11.445 19 17 C11.08 17 3.16 17 -5 17 C-2.75 5.75 -2.75 5.75 0 0 Z " fill="#EA8ED8" transform="translate(218,37)"/>
<path d="M0 0 C9.1796875 -0.1953125 9.1796875 -0.1953125 12 0 C12.66 0.66 13.32 1.32 14 2 C13.77289324 4.01151705 13.53928901 6.02344239 13.2265625 8.0234375 C12.97286301 10.23674688 13.2178162 11.91417653 14 14 C14.66 14 15.32 14 16 14 C16 14.66 16 15.32 16 16 C10.72 16 5.44 16 0 16 C0 10.72 0 5.44 0 0 Z M6 3 C6 4.32 6 5.64 6 7 C6.99 7 7.98 7 9 7 C9 5.68 9 4.36 9 3 C8.01 3 7.02 3 6 3 Z M6 10 C6 11.32 6 12.64 6 14 C6.99 14 7.98 14 9 14 C8.67 12.68 8.34 11.36 8 10 C7.34 10 6.68 10 6 10 Z " fill="#010405" transform="translate(43,71)"/>
<path d="M0 0 C2.1683679 1.80697325 2.86924769 3.11560588 3.28125 5.90234375 C3.42523524 9.12401343 3.23384345 11.46353561 1.9375 14.4375 C-1.01058287 16.81498619 -3.2544684 17 -7 17 C-9.9375 15.625 -9.9375 15.625 -12 13 C-12.80340907 8.82227281 -12.67414869 5.28409274 -10.6875 1.5 C-7.22805645 -1.57506093 -4.23424994 -1.14677603 0 0 Z M-7 3 C-8.36952673 5.73905345 -8.12621361 7.97087332 -8 11 C-7.67 11.66 -7.34 12.32 -7 13 C-5.35 13 -3.7 13 -2 13 C-0.9910966 8.76353233 -0.9910966 8.76353233 -1.9375 4.625 C-2.288125 4.08875 -2.63875 3.5525 -3 3 C-4.32 3 -5.64 3 -7 3 Z " fill="#010305" transform="translate(170,71)"/>
<path d="M0 0 C10.91406355 -0.77222148 10.91406355 -0.77222148 14.8125 2 C16.49935236 6.26152175 16.07987062 8.53653477 15 13 C13.828125 14.73046875 13.828125 14.73046875 12 16 C9.08203125 16.29296875 9.08203125 16.29296875 5.8125 16.1875 C4.72582031 16.16042969 3.63914062 16.13335937 2.51953125 16.10546875 C1.27236328 16.05326172 1.27236328 16.05326172 0 16 C0.33 15.01 0.66 14.02 1 13 C1.09308544 11.33541327 1.12996185 9.66718003 1.125 8 C1.12886719 6.700625 1.12886719 6.700625 1.1328125 5.375 C1.09594205 2.84988305 1.09594205 2.84988305 0 0 Z M6 3 C6 6.3 6 9.6 6 13 C7.65 12.67 9.3 12.34 11 12 C11 9.36 11 6.72 11 4 C9.35 3.67 7.7 3.34 6 3 Z " fill="#000405" transform="translate(79,71)"/>
<path d="M0 0 C1.95766281 -0.08082094 3.91626728 -0.13910778 5.875 -0.1875 C7.51082031 -0.23970703 7.51082031 -0.23970703 9.1796875 -0.29296875 C10.11039063 -0.19628906 11.04109375 -0.09960938 12 0 C14.14762184 3.22143276 14.561068 4.2595467 14 8 C12.25 9.8125 12.25 9.8125 10 11 C8.68 11 7.36 11 6 11 C6 11.99 6 12.98 6 14 C6.66 14 7.32 14 8 14 C8 14.66 8 15.32 8 16 C5.69 16.33 3.38 16.66 1 17 C-0.18681726 13.43954823 -0.09689832 10.56191663 -0.0625 6.8125 C-0.05347656 5.54019531 -0.04445313 4.26789063 -0.03515625 2.95703125 C-0.02355469 1.98121094 -0.01195313 1.00539063 0 0 Z M6 3 C6 4.65 6 6.3 6 8 C6.99 7.67 7.98 7.34 9 7 C8.34 6.67 7.68 6.34 7 6 C7 5.34 7 4.68 7 4 C7.66 3.67 8.32 3.34 9 3 C8.01 3 7.02 3 6 3 Z " fill="#010305" transform="translate(25,71)"/>
<path d="M0 0 C0 1.65 0 3.3 0 5 C-1.32 5 -2.64 5 -4 5 C-4 4.34 -4 3.68 -4 3 C-4.99 3 -5.98 3 -7 3 C-6.11600092 5.23408258 -6.11600092 5.23408258 -3.5625 6.375 C-0.87592252 8.07868328 -0.10510897 9.08653091 1 12 C-1.0625 14.5625 -1.0625 14.5625 -4 17 C-7.8125 16.8125 -7.8125 16.8125 -11 16 C-11.33 14.68 -11.66 13.36 -12 12 C-10.68 11.67 -9.36 11.34 -8 11 C-8 11.66 -8 12.32 -8 13 C-6.68 13 -5.36 13 -4 13 C-4 12.01 -4 11.02 -4 10 C-4.763125 9.896875 -5.52625 9.79375 -6.3125 9.6875 C-9.22117209 8.94342109 -10.38010972 8.51982932 -12 6 C-11.875 3.4375 -11.875 3.4375 -11 1 C-6.8204355 -1.78637633 -4.85331323 -0.79562512 0 0 Z " fill="#020708" transform="translate(210,71)"/>
<path d="M0 0 C4.29 0 8.58 0 13 0 C12.67 1.65 12.34 3.3 12 5 C11.01 5 10.02 5 9 5 C9 4.34 9 3.68 9 3 C8.01 3 7.02 3 6 3 C6 3.99 6 4.98 6 6 C7.65 6 9.3 6 11 6 C11.33 6.99 11.66 7.98 12 9 C10.02 9 8.04 9 6 9 C6 10.32 6 11.64 6 13 C6.99 13 7.98 13 9 13 C9 12.34 9 11.68 9 11 C10.32 11.33 11.64 11.66 13 12 C13 13.32 13 14.64 13 16 C8.71 16 4.42 16 0 16 C0.33 15.01 0.66 14.02 1 13 C1.09308544 11.33541327 1.12996185 9.66718003 1.125 8 C1.12886719 6.700625 1.12886719 6.700625 1.1328125 5.375 C1.09594205 2.84988305 1.09594205 2.84988305 0 0 Z " fill="#010404" transform="translate(62,71)"/>
<path d="M0 0 C0.66 0 1.32 0 2 0 C2.83714909 3.29070841 3.66906896 6.58271647 4.5 9.875 C4.73847656 10.81214844 4.97695312 11.74929687 5.22265625 12.71484375 C5.44824219 13.61074219 5.67382812 14.50664063 5.90625 15.4296875 C6.11572266 16.25710449 6.32519531 17.08452148 6.54101562 17.93701172 C7 20 7 20 7 22 C3.04 22 -0.92 22 -5 22 C-3.58409924 14.59374987 -1.88178579 7.30132885 0 0 Z " fill="#434D7E" transform="translate(193,32)"/>
<path d="M0 0 C0 1.65 0 3.3 0 5 C-1.32 5 -2.64 5 -4 5 C-4 4.34 -4 3.68 -4 3 C-5.32 3 -6.64 3 -8 3 C-8 6.3 -8 9.6 -8 13 C-4.99740483 13.33218192 -4.99740483 13.33218192 -3.3125 11.5 C-2.879375 11.005 -2.44625 10.51 -2 10 C-1.34 10.33 -0.68 10.66 0 11 C0 12.65 0 14.3 0 16 C-2.85324437 17.42662219 -4.83454549 17.31033868 -8 17 C-10.875 15.5625 -10.875 15.5625 -13 13 C-13.81165209 8.8268831 -13.67181341 5.27964458 -11.6875 1.5 C-7.95519374 -1.81760557 -4.59203118 -0.77977888 0 0 Z " fill="#010405" transform="translate(124,71)"/>
<path d="M0 0 C4.62 0 9.24 0 14 0 C14 1.65 14 3.3 14 5 C13.01 5 12.02 5 11 5 C10.67 7.97 10.34 10.94 10 14 C10.66 14 11.32 14 12 14 C12 14.66 12 15.32 12 16 C9.03 16 6.06 16 3 16 C3 15.34 3 14.68 3 14 C3.66 14 4.32 14 5 14 C4.67 11.03 4.34 8.06 4 5 C2.68 4.67 1.36 4.34 0 4 C0 2.68 0 1.36 0 0 Z " fill="#000305" transform="translate(128,71)"/>
<path d="M0 0 C4.95 0 9.9 0 15 0 C15 4.98887899 14.34552782 6.79759598 12 11 C10.7625 10.79375 9.525 10.5875 8.25 10.375 C4.88090165 9.93892876 2.87158079 9.96596361 0 12 C-0.33 11.01 -0.66 10.02 -1 9 C2.75 6 2.75 6 5 6 C5 5.34 5 4.68 5 4 C3.35 3.67 1.7 3.34 0 3 C0 2.01 0 1.02 0 0 Z " fill="#F5C92D" transform="translate(175,30)"/>
<path d="M0 0 C0.99 0 1.98 0 3 0 C3.33 1.65 3.66 3.3 4 5 C4.66 5 5.32 5 6 5 C6 6.98 6 8.96 6 11 C5.34 11 4.68 11 4 11 C4 9.68 4 8.36 4 7 C1.93597032 7.48705712 1.93597032 7.48705712 0 9 C-0.81870185 12.56206661 -0.81870185 12.56206661 -1 16 C-1.66 16 -2.32 16 -3 16 C-3.33 17.32 -3.66 18.64 -4 20 C-4.66 20 -5.32 20 -6 20 C-7.29105885 16.12682346 -7.73656963 12.01910822 -7 8 C-4.625 5.1875 -4.625 5.1875 -2 3 C-1.34 2.01 -0.68 1.02 0 0 Z " fill="#F1C931" transform="translate(205,32)"/>
<path d="M0 0 C1.32 0 2.64 0 4 0 C8.21744974 4.6745859 8.53002115 8.41916556 8.25 14.375 C8.23195312 15.11105469 8.21390625 15.84710938 8.1953125 16.60546875 C8.14859176 18.40421736 8.07686183 20.20228711 8 22 C7.01 22 6.02 22 5 22 C3.23537317 18.91190305 3 17.76687864 3 14 C1.68 14.33 0.36 14.66 -1 15 C-0.34 13.68 0.32 12.36 1 11 C1.99 11 2.98 11 4 11 C4 12.32 4 13.64 4 15 C4.66 15 5.32 15 6 15 C6 13.02 6 11.04 6 9 C5.34 9 4.68 9 4 9 C3.67 7.35 3.34 5.7 3 4 C2.01 4 1.02 4 0 4 C-0.28875 4.61875 -0.5775 5.2375 -0.875 5.875 C-2 8 -2 8 -4 10 C-3.67 8.02 -3.34 6.04 -3 4 C-2.34 4 -1.68 4 -1 4 C-0.67 2.68 -0.34 1.36 0 0 Z " fill="#F1C748" transform="translate(205,28)"/>
<path d="M0 0 C2.31 0 4.62 0 7 0 C7 5.28 7 10.56 7 16 C4.69 16 2.38 16 0 16 C0 10.72 0 5.44 0 0 Z " fill="#010405" transform="translate(99,71)"/>
<path d="M0 0 C2.31 0 4.62 0 7 0 C7 5.28 7 10.56 7 16 C4.69 16 2.38 16 0 16 C0.08378906 15.09636719 0.16757813 14.19273438 0.25390625 13.26171875 C0.35574219 12.08222656 0.45757812 10.90273437 0.5625 9.6875 C0.66691406 8.51574219 0.77132812 7.34398438 0.87890625 6.13671875 C1.18577434 2.96967425 1.18577434 2.96967425 0 0 Z " fill="#010305" transform="translate(146,71)"/>
<path d="M0 0 C0 0.66 0 1.32 0 2 C0.99 2.33 1.98 2.66 3 3 C3 4.98 3 6.96 3 9 C0.0703125 8.95117188 0.0703125 8.95117188 -2.859375 8.90234375 C-5.03292403 9.00150201 -6.91306537 9.40306149 -9 10 C-8.88637738 8.5199159 -8.75877092 7.04089926 -8.625 5.5625 C-8.55539063 4.73878906 -8.48578125 3.91507813 -8.4140625 3.06640625 C-8.27742187 2.38449219 -8.14078125 1.70257813 -8 1 C-5.29120665 -0.35439668 -2.99066732 -0.06501451 0 0 Z " fill="#F9C72B" transform="translate(184,42)"/>
<path d="M0 0 C0.99 0 1.98 0 3 0 C3.6708712 1.6232687 4.33657029 3.24867578 5 4.875 C5.556875 6.23238281 5.556875 6.23238281 6.125 7.6171875 C7 10 7 10 7 12 C3.04 12 -0.92 12 -5 12 C-4.34 10.02 -3.68 8.04 -3 6 C-2.34 6 -1.68 6 -1 6 C-1.020625 5.195625 -1.04125 4.39125 -1.0625 3.5625 C-1 1 -1 1 0 0 Z " fill="#D3DCE0" transform="translate(205,42)"/>
<path d="M0 0 C0.66 0 1.32 0 2 0 C3.65 3.63 5.3 7.26 7 11 C3.04 11 -0.92 11 -5 11 C-3.47903372 7.19758429 -1.85989732 3.63525385 0 0 Z " fill="#6B93D7" transform="translate(230,43)"/>
<path d="M0 0 C0.66 0.66 1.32 1.32 2 2 C4.76085062 2.3203522 4.76085062 2.3203522 7.875 2.25 C8.92429688 2.25515625 9.97359375 2.2603125 11.0546875 2.265625 C13.96356583 2.00328584 15.4904982 1.38754311 18 0 C22.09859246 -0.33457898 23.51195905 -0.32536063 27 2 C27 2.66 27 3.32 27 4 C25.75283203 4.09087891 25.75283203 4.09087891 24.48046875 4.18359375 C22.85044922 4.30927734 22.85044922 4.30927734 21.1875 4.4375 C20.10855469 4.51871094 19.02960938 4.59992187 17.91796875 4.68359375 C14.94010095 4.90212461 14.94010095 4.90212461 12 6 C12 5.34 12 4.68 12 4 C5.565 4.495 5.565 4.495 -1 5 C-0.67 3.35 -0.34 1.7 0 0 Z " fill="#E899B0" transform="translate(161,50)"/>
<path d="M0 0 C1.33841672 0.31229724 2.67139075 0.64830932 4 1 C4.99 1 5.98 1 7 1 C7.33 1.99 7.66 2.98 8 4 C8.99 4.33 9.98 4.66 11 5 C11 6.32 11 7.64 11 9 C8.69 9.33 6.38 9.66 4 10 C3.731875 8.88625 3.46375 7.7725 3.1875 6.625 C2.34190981 2.78159049 2.34190981 2.78159049 -1 1 C-0.67 0.67 -0.34 0.34 0 0 Z " fill="#BA5C4C" transform="translate(162,33)"/>
<path d="M0 0 C0.66 0 1.32 0 2 0 C2.06058594 0.63808594 2.12117187 1.27617188 2.18359375 1.93359375 C2.26738281 2.75988281 2.35117188 3.58617187 2.4375 4.4375 C2.51871094 5.26121094 2.59992188 6.08492187 2.68359375 6.93359375 C2.78930815 8.98662025 2.78930815 8.98662025 4 10 C4.04063832 11.66617115 4.042721 13.33388095 4 15 C1.69 15 -0.62 15 -3 15 C-2.5547115 9.72684667 -1.91626837 4.98229776 0 0 Z " fill="#2640A0" transform="translate(193,38)"/>
<path d="M0 0 C2.95839355 -0.02689449 5.91654427 -0.04678741 8.875 -0.0625 C9.71675781 -0.07087891 10.55851563 -0.07925781 11.42578125 -0.08789062 C12.23144531 -0.09111328 13.03710938 -0.09433594 13.8671875 -0.09765625 C14.98262939 -0.10551147 14.98262939 -0.10551147 16.12060547 -0.11352539 C18 0 18 0 20 1 C20 4.3 20 7.6 20 11 C19.67 11 19.34 11 19 11 C19 8.03 19 5.06 19 2 C11.08 2.495 11.08 2.495 3 3 C3.33 4.98 3.66 6.96 4 9 C3.34 9 2.68 9 2 9 C0.50178941 5.62902617 0 3.79557881 0 0 Z " fill="#F6CF4F" transform="translate(194,23)"/>
<path d="M0 0 C4.62 0 9.24 0 14 0 C13.34 1.32 12.68 2.64 12 4 C11.34 4 10.68 4 10 4 C10 4.66 10 5.32 10 6 C6.7 5.01 3.4 4.02 0 3 C0 2.01 0 1.02 0 0 Z " fill="#FCC820" transform="translate(175,30)"/>
<path d="M0 0 C1.32 0 2.64 0 4 0 C6.72919661 3.18406272 7.9379775 5.16269626 8.25 9.375 C8.1675 10.24125 8.085 11.1075 8 12 C7.67 10.68 7.34 9.36 7 8 C6.34 8 5.68 8 5 8 C4.34 7.01 3.68 6.02 3 5 C2.01 4.67 1.02 4.34 0 4 C-0.28875 4.61875 -0.5775 5.2375 -0.875 5.875 C-2 8 -2 8 -4 10 C-3.67 8.02 -3.34 6.04 -3 4 C-2.34 4 -1.68 4 -1 4 C-0.67 2.68 -0.34 1.36 0 0 Z " fill="#EED064" transform="translate(205,28)"/>
<path d="M0 0 C5.28 0 10.56 0 16 0 C16 0.99 16 1.98 16 3 C10.72 3 5.44 3 0 3 C0 2.01 0 1.02 0 0 Z " fill="#FDF5D1" transform="translate(174,26)"/>
<path d="M0 0 C0.66 0.33 1.32 0.66 2 1 C2 2.98 2 4.96 2 7 C2.66 7.33 3.32 7.66 4 8 C0.04 8 -3.92 8 -8 8 C-5.33333333 5.33333333 -2.66666667 2.66666667 0 0 Z " fill="#FAB233" transform="translate(171,45)"/>
<path d="M0 0 C1.32 0 2.64 0 4 0 C4 0.99 4 1.98 4 3 C3.01 3.495 3.01 3.495 2 4 C1.34444881 6.52733235 1.34444881 6.52733235 1 9 C2.32 9 3.64 9 5 9 C4.67 10.65 4.34 12.3 4 14 C1 14 1 14 -1 13 C-0.67 8.71 -0.34 4.42 0 0 Z " fill="#EEC24E" transform="translate(163,20)"/>
<path d="M0 0 C1.66611905 -0.042721 3.33382885 -0.04063832 5 0 C6.73219928 1.73219928 6.21291761 4.02026808 6.25 6.375 C6.27578125 7.35210937 6.3015625 8.32921875 6.328125 9.3359375 C6 12 6 12 3 15 C3 10.38 3 5.76 3 1 C2.01 0.67 1.02 0.34 0 0 Z " fill="#EEB856" transform="translate(159,35)"/>
<path d="M0 0 C1.32 0.33 2.64 0.66 4 1 C4 3.97 4 6.94 4 10 C0 8 0 8 -1.375 5.5625 C-1.58125 4.716875 -1.7875 3.87125 -2 3 C-1.34 2.01 -0.68 1.02 0 0 Z " fill="#BD9B8E" transform="translate(170,26)"/>
<path d="M0 0 C-0.33 2.31 -0.66 4.62 -1 7 C-0.34 7 0.32 7 1 7 C0.67 8.32 0.34 9.64 0 11 C-1.65 11 -3.3 11 -5 11 C-5 9.35 -5 7.7 -5 6 C-4.01 5.67 -3.02 5.34 -2 5 C-2 4.01 -2 3.02 -2 2 C-3.32 1.67 -4.64 1.34 -6 1 C-1.125 0 -1.125 0 0 0 Z " fill="#EDDBC8" transform="translate(169,18)"/>
<path d="M0 0 C1.98 1.65 3.96 3.3 6 5 C6.33 3.68 6.66 2.36 7 1 C9.475 1.99 9.475 1.99 12 3 C12 3.66 12 4.32 12 5 C9.8125 6.75 9.8125 6.75 7 8 C3.37926508 7.31033621 2.28861732 6.4179975 0.1875 3.375 C-0.204375 2.59125 -0.59625 1.8075 -1 1 C-0.67 0.67 -0.34 0.34 0 0 Z " fill="#F5BB8F" transform="translate(168,31)"/>
<path d="M0 0 C1.5 1 1.5 1 3 3 C3.42372144 6.45332972 3.58512383 9.82975235 2 13 C1.34 13 0.68 13 0 13 C-0.66 9.7 -1.32 6.4 -2 3 C-1.34 3 -0.68 3 0 3 C0 2.01 0 1.02 0 0 Z " fill="#D6430F" transform="translate(173,39)"/>
<path d="M0 0 C1.45047396 2.90094791 0.45356803 4.55972596 -0.4375 7.625 C-0.72496094 8.62789062 -1.01242188 9.63078125 -1.30859375 10.6640625 C-1.53675781 11.43492188 -1.76492187 12.20578125 -2 13 C-2.99 13 -3.98 13 -5 13 C-5 10.69 -5 8.38 -5 6 C-4.34 6 -3.68 6 -3 6 C-2.87625 5.195625 -2.7525 4.39125 -2.625 3.5625 C-2.41875 2.716875 -2.2125 1.87125 -2 1 C-1.34 0.67 -0.68 0.34 0 0 Z " fill="#DCBD51" transform="translate(191,38)"/>
<path d="M0 0 C0.66 0 1.32 0 2 0 C2.33 1.32 2.66 2.64 3 4 C3.66 4 4.32 4 5 4 C5 5.98 5 7.96 5 10 C4.34 10 3.68 10 3 10 C3 8.68 3 7.36 3 6 C1.02 6 -0.96 6 -3 6 C-3 5.34 -3 4.68 -3 4 C-2.34 3.67 -1.68 3.34 -1 3 C-0.67 2.01 -0.34 1.02 0 0 Z " fill="#FBC724" transform="translate(206,33)"/>
<path d="M0 0 C1 3 1 3 0 6 C1.65 6 3.3 6 5 6 C5 4.02 5 2.04 5 0 C6.89213369 2.38573379 8.02391783 4.07175348 9 7 C5.04 7 1.08 7 -3 7 C-1 2 -1 2 0 0 Z " fill="#7B95C9" transform="translate(228,47)"/>
<path d="M0 0 C1.22589844 0.29197266 1.22589844 0.29197266 2.4765625 0.58984375 C3.41628906 0.82380859 3.41628906 0.82380859 4.375 1.0625 C4.375 2.0525 4.375 3.0425 4.375 4.0625 C3.055 4.0625 1.735 4.0625 0.375 4.0625 C0.375 3.4025 0.375 2.7425 0.375 2.0625 C-1.605 2.0625 -3.585 2.0625 -5.625 2.0625 C-5.955 2.7225 -6.285 3.3825 -6.625 4.0625 C-6.625 2.7425 -6.625 1.4225 -6.625 0.0625 C-3.99249612 -1.25375194 -2.82320944 -0.68563658 0 0 Z " fill="#EFCF6D" transform="translate(183.625,39.9375)"/>
<path d="M0 0 C1.98 0 3.96 0 6 0 C6 1.32 6 2.64 6 4 C5.34 4 4.68 4 4 4 C3.67 5.32 3.34 6.64 3 8 C2.34 8 1.68 8 1 8 C0.67 5.36 0.34 2.72 0 0 Z " fill="#E0C25F" transform="translate(198,44)"/>
<path d="M0 0 C1.485 0.99 1.485 0.99 3 2 C3 2.66 3 3.32 3 4 C3.99 4.33 4.98 4.66 6 5 C5.67 5.66 5.34 6.32 5 7 C3.02 7 1.04 7 -1 7 C-1.04254356 5.00045254 -1.04080783 2.99958364 -1 1 C-0.67 0.67 -0.34 0.34 0 0 Z " fill="#B26DC8" transform="translate(167,33)"/>
<path d="M0 0 C2.3129482 2.3129482 2.49580975 3.47904875 3.125 6.625 C3.29257813 7.44226562 3.46015625 8.25953125 3.6328125 9.1015625 C3.81457031 10.04128906 3.81457031 10.04128906 4 11 C3.34 11 2.68 11 2 11 C2 11.66 2 12.32 2 13 C1.34 13 0.68 13 0 13 C0.33 10.03 0.66 7.06 1 4 C0.34 4 -0.32 4 -1 4 C-0.67 2.68 -0.34 1.36 0 0 Z " fill="#E28ED4" transform="translate(218,37)"/>
<path d="M0 0 C3.63 0 7.26 0 11 0 C11 0.66 11 1.32 11 2 C7.32589215 3.17571451 3.83070817 3.07366746 0 3 C0 2.01 0 1.02 0 0 Z " fill="#F0DEEB" transform="translate(219,24)"/>
<path d="M0 0 C5.28798182 0.41474367 8.11690718 1.35224614 12 5 C7.428721 4.45144652 3.32564205 3.58255197 -1 2 C-0.67 1.34 -0.34 0.68 0 0 Z " fill="#DCCAC7" transform="translate(177,19)"/>
<path d="M0 0 C0.66 0.66 1.32 1.32 2 2 C5.35744112 2.24377883 5.35744112 2.24377883 9.125 2.125 C10.40632812 2.10695312 11.68765625 2.08890625 13.0078125 2.0703125 C13.99523437 2.04710937 14.98265625 2.02390625 16 2 C15.34 3.32 14.68 4.64 14 6 C13.34 6 12.68 6 12 6 C12 5.34 12 4.68 12 4 C5.565 4.495 5.565 4.495 -1 5 C-0.67 3.35 -0.34 1.7 0 0 Z " fill="#E5B982" transform="translate(161,50)"/>
<path d="M0 0 C0.99 0 1.98 0 3 0 C6.22265625 5.2734375 6.22265625 5.2734375 7 7 C6.67 7.66 6.34 8.32 6 9 C5.38125 8.175 4.7625 7.35 4.125 6.5 C3.073125 5.2625 3.073125 5.2625 2 4 C1.34 4 0.68 4 0 4 C-1.63676257 5.9600281 -1.63676257 5.9600281 -3 8 C-2.45276317 4.62537285 -1.9451 2.91765 0 0 Z " fill="#E3EAEE" transform="translate(217,31)"/>
<path d="M0 0 C0.99 0.33 1.98 0.66 3 1 C3 2.65 3 4.3 3 6 C1.58566794 6.2236337 0.16832382 6.42826476 -1.25 6.625 C-2.03890625 6.74101563 -2.8278125 6.85703125 -3.640625 6.9765625 C-6 7 -6 7 -10 5 C-4.555 4.505 -4.555 4.505 1 4 C0.67 2.68 0.34 1.36 0 0 Z " fill="#E2F1FC" transform="translate(235,49)"/>
<path d="M0 0 C1.65 0 3.3 0 5 0 C5.33 2.31 5.66 4.62 6 7 C5.01 6.67 4.02 6.34 3 6 C3 5.34 3 4.68 3 4 C2.34 4 1.68 4 1 4 C0.67 2.68 0.34 1.36 0 0 Z " fill="#EBD193" transform="translate(189,23)"/>
<path d="M0 0 C0.33 0 0.66 0 1 0 C1.33 1.65 1.66 3.3 2 5 C3.65 5 5.3 5 7 5 C7.33 5.66 7.66 6.32 8 7 C5.03 7.66 2.06 8.32 -1 9 C-0.67 6.03 -0.34 3.06 0 0 Z " fill="#F7A84D" transform="translate(176,43)"/>
<path d="M0 0 C0.66 0 1.32 0 2 0 C2.33 1.98 2.66 3.96 3 6 C2.01 6 1.02 6 0 6 C-0.33 7.98 -0.66 9.96 -1 12 C-2.45606519 7.47907032 -1.27032841 4.48351204 0 0 Z " fill="#615F56" transform="translate(193,32)"/>
<path d="M0 0 C1.32 0 2.64 0 4 0 C3.67 0.66 3.34 1.32 3 2 C2.34 2 1.68 2 1 2 C0.5978125 3.1446875 0.5978125 3.1446875 0.1875 4.3125 C-0.94424112 6.87380884 -1.91223401 8.19692938 -4 10 C-3.67 8.02 -3.34 6.04 -3 4 C-2.34 4 -1.68 4 -1 4 C-0.67 2.68 -0.34 1.36 0 0 Z " fill="#F2CD5A" transform="translate(205,28)"/>
<path d="M0 0 C2.08559201 3.43509272 2.08559201 3.43509272 1.6875 6.0625 C1.460625 6.701875 1.23375 7.34125 1 8 C0.67 8.99 0.34 9.98 0 11 C-0.99 11 -1.98 11 -3 11 C-2.690625 10.29875 -2.38125 9.5975 -2.0625 8.875 C-0.96697322 5.91063343 -0.43577008 3.12301892 0 0 Z " fill="#E3622D" transform="translate(165,41)"/>
<path d="M0 0 C0.99 0 1.98 0 3 0 C3.33 2.97 3.66 5.94 4 9 C3.34 8.34 2.68 7.68 2 7 C2 5.68 2 4.36 2 3 C0.68 3.33 -0.64 3.66 -2 4 C-1.34 2.68 -0.68 1.36 0 0 Z " fill="#EAD065" transform="translate(206,39)"/>
<path d="M0 0 C1.32 0 2.64 0 4 0 C4 1.65 4 3.3 4 5 C2.68 4.67 1.36 4.34 0 4 C0 2.68 0 1.36 0 0 Z " fill="#FAC52A" transform="translate(198,40)"/>
<path d="M0 0 C3.63 0 7.26 0 11 0 C11 0.33 11 0.66 11 1 C8.36 1 5.72 1 3 1 C3.33 1.99 3.66 2.98 4 4 C2.68 3.67 1.36 3.34 0 3 C0 2.01 0 1.02 0 0 Z " fill="#FAC632" transform="translate(175,30)"/>
<path d="M0 0 C0.66 0 1.32 0 2 0 C2.185625 1.2065625 2.185625 1.2065625 2.375 2.4375 C2.58125 3.283125 2.7875 4.12875 3 5 C3.66 5.33 4.32 5.66 5 6 C4.34 6 3.68 6 3 6 C2.67 7.32 2.34 8.64 2 10 C1.34 6.7 0.68 3.4 0 0 Z " fill="#DCBF5F" transform="translate(195,34)"/>
<path d="M0 0 C0.33 0 0.66 0 1 0 C1 1.98 1 3.96 1 6 C0.34 6 -0.32 6 -1 6 C-1 6.66 -1 7.32 -1 8 C-1.66 8 -2.32 8 -3 8 C-2.45276317 4.62537285 -1.9451 2.91765 0 0 Z " fill="#F8CE5A" transform="translate(190,33)"/>
<path d="M0 0 C0.33 0.66 0.66 1.32 1 2 C1.99 2.33 2.98 2.66 4 3 C0.535 4.485 0.535 4.485 -3 6 C-3.33 5.01 -3.66 4.02 -4 3 C-2.68 2.01 -1.36 1.02 0 0 Z " fill="#F9BF40" transform="translate(178,36)"/>
<path d="M0 0 C1.32 0 2.64 0 4 0 C4 0.99 4 1.98 4 3 C3.01 3.495 3.01 3.495 2 4 C0.86649466 6.01669827 0.86649466 6.01669827 0 8 C0 5.36 0 2.72 0 0 Z " fill="#D0A853" transform="translate(163,20)"/>
<path d="M0 0 C0.33 0 0.66 0 1 0 C1.125 7.75 1.125 7.75 0 10 C-0.66 10 -1.32 10 -2 10 C-1.34 6.7 -0.68 3.4 0 0 Z " fill="#494C73" transform="translate(190,44)"/>
<path d="M0 0 C2.475 0.99 2.475 0.99 5 2 C5 3.32 5 4.64 5 6 C3.0625 5.25 3.0625 5.25 1 4 C0.25 1.875 0.25 1.875 0 0 Z " fill="#C281B5" transform="translate(169,30)"/>
<path d="M0 0 C1.32 0 2.64 0 4 0 C4 1.32 4 2.64 4 4 C2.68 4 1.36 4 0 4 C0 2.68 0 1.36 0 0 Z " fill="#CA3944" transform="translate(302,18)"/>
<path d="" fill="#000000" transform="translate(0,0)"/>
<path d="" fill="#000000" transform="translate(0,0)"/>
<path d="" fill="#000000" transform="translate(0,0)"/>
</svg>
