<?xml version="1.0" encoding="UTF-8"?>
<svg version="1.1" xmlns="http://www.w3.org/2000/svg" width="512" height="512">
<path d="M0 0 C1.84201762 1.68263737 3.66760024 3.38343766 5.4765625 5.1015625 C8.12788016 7.58121211 10.86136017 9.86855964 13.69140625 12.140625 C17.47600959 15.19411179 21.11348162 18.34730801 24.69140625 21.640625 C29.16125745 25.75441409 33.78185518 29.61149797 38.5078125 33.42578125 C41.99691541 36.30543387 45.32137546 39.34756376 48.6640625 42.39453125 C51.26103018 44.70250098 53.92544638 46.89618363 56.62890625 49.078125 C61.40280925 52.93887637 65.92529053 57.01499575 70.44140625 61.171875 C73.12878259 63.58440604 75.88106069 65.8731871 78.69140625 68.140625 C83.44736044 71.97781531 87.94645426 76.03447601 92.44140625 80.171875 C95.12878259 82.58440604 97.88106069 84.8731871 100.69140625 87.140625 C105.44736044 90.97781531 109.94645426 95.03447601 114.44140625 99.171875 C117.12878259 101.58440604 119.88106069 103.8731871 122.69140625 106.140625 C127.53217975 110.04782075 132.13934592 114.15624184 136.69921875 118.38671875 C138.6850704 120.18270058 140.6834213 121.78351422 142.81640625 123.390625 C150.96357361 130.32062519 156.31896532 141.55288601 159.19140625 151.640625 C159.366906 152.19518655 159.54240576 152.7497481 159.72322369 153.32111454 C160.37737034 156.56194433 160.33944512 159.76562535 160.33857727 163.05747986 C160.34225396 163.80718239 160.34593065 164.55688492 160.34971875 165.32930571 C160.36073744 167.84316063 160.36459641 170.35697418 160.3684082 172.87084961 C160.37467445 174.67298513 160.38132139 176.47511937 160.38832092 178.2772522 C160.40935241 184.19914858 160.41972552 190.12104519 160.4296875 196.04296875 C160.43373602 198.08451412 160.43785297 200.12605935 160.44203758 202.16760445 C160.46109076 211.76404634 160.47531902 221.36048056 160.48364955 230.95693773 C160.49340936 242.01622726 160.51969555 253.07531596 160.56015044 264.13453478 C160.59037615 272.69271126 160.60512472 281.25083041 160.60843056 289.8090592 C160.61077455 294.91518 160.61964933 300.02108629 160.64489174 305.12714958 C160.66828921 309.93791413 160.67235903 314.74832477 160.66213036 319.55913162 C160.66163764 321.31621164 160.66787931 323.07330978 160.6816864 324.83033562 C160.81839574 343.27292378 156.53632213 358.64509085 143.54296875 372.35546875 C128.5244581 386.94986864 112.71732455 390.17717221 92.42944336 390.08666992 C89.49978382 390.07811296 86.57204831 390.1070721 83.64257812 390.13867188 C81.75911516 390.14028322 79.87564878 390.13970763 77.9921875 390.13671875 C77.12741287 390.14795273 76.26263824 390.15918671 75.37165833 390.17076111 C68.75975165 390.09555837 63.16051114 388.5719069 58.3515625 383.82421875 C57.98933594 383.24800781 57.62710937 382.67179687 57.25390625 382.078125 C56.87363281 381.49933594 56.49335938 380.92054688 56.1015625 380.32421875 C53.06380148 374.70501273 53.19573933 367.31139703 54.83984375 361.25 C57.07551161 356.24363266 60.4004717 353.23061978 65.19140625 350.640625 C68.68058767 349.47756453 71.52253066 349.46366023 75.203125 349.39453125 C76.61524001 349.36156862 78.02734923 349.32835741 79.43945312 349.29492188 C81.65319517 349.24773775 83.86691799 349.203339 86.08081055 349.16381836 C101.09598379 349.22567186 101.09598379 349.22567186 114.19140625 342.640625 C118.83667075 336.54093264 119.31452972 330.2694018 119.32511902 322.82951355 C119.32738458 322.16920161 119.32965013 321.50888967 119.33198434 320.82856828 C119.3382836 318.62942781 119.33749761 316.43034963 119.33666992 314.23120117 C119.33966397 312.6488792 119.34306706 311.06655796 119.34684753 309.48423767 C119.355667 305.19486536 119.35802479 300.905513 119.35866332 296.6161325 C119.35937502 293.93352728 119.36151161 291.2509271 119.36416054 288.56832314 C119.37340734 279.20171411 119.37749628 269.8351193 119.37670898 260.46850586 C119.37610845 251.75029845 119.38665722 243.03215296 119.40245265 234.31396121 C119.41554723 226.81821725 119.42089207 219.32249348 119.42025357 211.82673818 C119.41999914 207.3546511 119.42282012 202.88261908 119.43343163 198.41054344 C119.44314485 194.20228371 119.44316975 189.9941313 119.43591499 185.78586769 C119.43487314 184.24642403 119.43720822 182.70697357 119.44327545 181.1675415 C119.81893117 165.81450059 119.81893117 165.81450059 112.62109375 152.921875 C107.6072367 148.21433076 102.39487343 143.7433416 97.14794922 139.29882812 C94.72594384 137.24613777 92.31580639 135.17986327 89.90649414 133.11230469 C88.75919027 132.12782814 87.61123618 131.14410888 86.46264648 130.16113281 C81.55532423 125.96095521 76.67480343 121.73033678 71.796875 117.49609375 C67.60803767 113.86229905 63.40509389 110.24556318 59.19140625 106.640625 C53.70679813 101.94837562 48.24764452 97.22758647 42.796875 92.49609375 C38.60803767 88.86229905 34.40509389 85.24556318 30.19140625 81.640625 C24.70679813 76.94837562 19.24764452 72.22758647 13.796875 67.49609375 C9.03772174 63.36755293 4.25885409 59.26265784 -0.53027344 55.16894531 C-4.24364621 51.99173917 -7.93620712 48.79177432 -11.61914062 45.5793457 C-14.67202724 42.92113615 -17.73921784 40.27975602 -20.80859375 37.640625 C-21.7728125 36.80660156 -22.73703125 35.97257812 -23.73046875 35.11328125 C-29.4385258 30.33062133 -34.09637708 27.21897363 -41.80859375 27.765625 C-49.59900154 29.10879876 -54.53068145 34.02467216 -60.140625 39.21875 C-62.77222764 41.6076133 -65.47733536 43.85047916 -68.24609375 46.078125 C-73.01999675 49.93887637 -77.54247803 54.01499575 -82.05859375 58.171875 C-85.62043604 61.36943796 -89.33425208 64.35450843 -93.05859375 67.359375 C-95.88958953 69.70781468 -98.60242973 72.14972402 -101.30859375 74.640625 C-105.77844495 78.75441409 -110.39904268 82.61149797 -115.125 86.42578125 C-117.75567932 88.59695327 -120.28801799 90.84303857 -122.80859375 93.140625 C-126.20458057 96.23617696 -129.67030906 99.19213707 -133.24609375 102.078125 C-138.01999675 105.93887637 -142.54247803 110.01499575 -147.05859375 114.171875 C-150.62043604 117.36943796 -154.33425208 120.35450843 -158.05859375 123.359375 C-161.84906846 126.50374607 -165.44403761 129.84464555 -169.06640625 133.1796875 C-171.70875258 135.55102395 -174.41553542 137.79315497 -177.18359375 140.015625 C-181.51774433 143.53047727 -185.7314566 147.15037618 -189.87109375 150.890625 C-190.4316748 151.3861084 -190.99225586 151.8815918 -191.56982422 152.39208984 C-196.67000986 157.05901872 -197.85921942 160.96871745 -198.80859375 167.640625 C-198.89860219 169.91189277 -198.93907482 172.18541732 -198.94230652 174.45846558 C-198.94570485 175.44999183 -198.94570485 175.44999183 -198.94917184 176.46154892 C-198.95547111 178.66302335 -198.95468511 180.86443556 -198.95385742 183.06591797 C-198.95685144 184.64986246 -198.96025453 186.23380622 -198.96403503 187.81774902 C-198.97285408 192.11118629 -198.97521225 196.40460362 -198.97585082 200.69804907 C-198.97656246 203.38265661 -198.97869893 206.0672591 -198.98134804 208.75186539 C-198.99059419 218.12380545 -198.9946838 227.49573131 -198.99389648 236.86767578 C-198.99329573 245.59385557 -199.0038489 254.31997354 -199.01964015 263.04613769 C-199.03272868 270.54696152 -199.03807984 278.04776516 -199.03744107 285.54860032 C-199.03718649 290.02456788 -199.04001571 294.50048046 -199.05061913 298.97643661 C-199.06032232 303.18715556 -199.06036408 307.3977672 -199.05310249 311.60848999 C-199.05205945 313.14996625 -199.05440287 314.69144927 -199.06046295 316.23291397 C-199.33061911 330.89434506 -199.33061911 330.89434506 -192.80859375 343.640625 C-186.76204503 348.24541758 -180.57292286 348.75612126 -173.1953125 348.74609375 C-171.32262695 348.76833008 -171.32262695 348.76833008 -169.41210938 348.79101562 C-166.81326251 348.8156431 -164.2141581 348.82102822 -161.61523438 348.80664062 C-153.4750911 348.94489319 -147.8361216 349.90801145 -141.80859375 355.640625 C-138.13346047 360.02586658 -136.72212106 364.99828168 -136.80859375 370.640625 C-137.42849772 376.41901561 -139.58137191 381.57784886 -143.80859375 385.640625 C-149.30714812 389.37655661 -153.20495957 390.23863772 -159.78515625 390.171875 C-161.05581436 390.17761536 -161.05581436 390.17761536 -162.35214233 390.18347168 C-164.1389078 390.18618198 -165.92571355 390.17888277 -167.71240234 390.16210938 C-170.40555672 390.14084636 -173.09599459 390.16185643 -175.7890625 390.1875 C-193.98955061 390.2172715 -208.9989559 385.80936658 -222.5234375 372.9921875 C-236.8673487 358.23144469 -240.27004118 342.58983165 -240.21264648 322.61572266 C-240.21835811 320.81255167 -240.22532542 319.00938429 -240.23344421 317.20622253 C-240.25130387 312.33626899 -240.25022075 307.46649634 -240.24450183 302.59651995 C-240.24139933 298.51875667 -240.24751424 294.4410276 -240.25354058 290.36326921 C-240.26756078 280.73694187 -240.26604559 271.11070333 -240.25463867 261.484375 C-240.2431617 251.5805728 -240.25723184 241.67704153 -240.28403515 231.77327502 C-240.30624557 223.24466354 -240.31281746 214.71613677 -240.30695873 206.18749845 C-240.30360051 201.10498078 -240.30592835 196.02263671 -240.32320976 190.94014359 C-240.33876207 186.1579792 -240.33463211 181.37621381 -240.31590462 176.59406471 C-240.31224147 174.84827941 -240.3152601 173.102464 -240.32579041 171.35670662 C-240.42852541 152.90298818 -235.92706357 137.5964183 -223.03125 123.78125 C-219.74728101 120.61848198 -216.23441677 117.78869154 -212.6640625 114.95703125 C-209.77610858 112.61427246 -207.04091622 110.162469 -204.30859375 107.640625 C-199.86132263 103.54711409 -195.26141912 99.71620001 -190.55859375 95.921875 C-187.72759797 93.57343532 -185.01475777 91.13152598 -182.30859375 88.640625 C-177.86132263 84.54711409 -173.26141912 80.71620001 -168.55859375 76.921875 C-165.72759797 74.57343532 -163.01475777 72.13152598 -160.30859375 69.640625 C-155.86132263 65.54711409 -151.26141912 61.71620001 -146.55859375 57.921875 C-143.72759797 55.57343532 -141.01475777 53.13152598 -138.30859375 50.640625 C-133.83874255 46.52683591 -129.21814482 42.66975203 -124.4921875 38.85546875 C-121.86150818 36.68429673 -119.32916951 34.43821143 -116.80859375 32.140625 C-113.41260693 29.04507304 -109.94687844 26.08911293 -106.37109375 23.203125 C-102.56771872 20.12725912 -98.90776723 16.95309334 -95.30859375 13.640625 C-89.97768873 8.7495386 -84.50232274 4.10417605 -78.80859375 -0.359375 C-77.99777344 -1.00003906 -77.18695313 -1.64070313 -76.3515625 -2.30078125 C-53.70394622 -19.24075918 -21.62488202 -18.16610395 0 0 Z " fill="#FB8420" transform="translate(295.80859375,66.359375)"/>
<path d="M0 0 C11.74090466 9.1740672 21.2711662 21.44993881 26.453125 35.4921875 C26.78550171 36.36292908 27.11787842 37.23367065 27.46032715 38.13079834 C31.64628106 51.11239755 31.07663556 64.4607338 31.05629015 77.96749449 C31.0541275 80.81562034 31.06397412 83.66365918 31.07350099 86.51176608 C31.09554993 93.23170807 31.0966418 99.95142624 31.08447266 106.67138672 C31.07235662 113.57860176 31.09713795 120.48500576 31.13961279 127.39208257 C31.17491882 133.35516135 31.18683743 139.31798255 31.18033731 145.2811619 C31.1767284 148.82887561 31.1818158 152.37600814 31.20976639 155.92362595 C31.23974295 159.87437314 31.22092009 163.82409289 31.19775391 167.77490234 C31.21304138 168.9345752 31.22832886 170.09424805 31.24407959 171.2890625 C31.14598257 178.87281417 29.74216456 183.91239424 24.453125 189.4921875 C18.41321059 194.43645317 12.4503595 194.07344412 4.86767578 194.04150391 C3.61314606 194.05172577 2.35861633 194.06194763 1.06607056 194.07247925 C-2.35995033 194.09545336 -5.7850008 194.10042903 -9.21103048 194.09535265 C-12.07863792 194.09320563 -14.94615717 194.10299936 -17.81374562 194.11256349 C-24.58341771 194.1347171 -31.35286783 194.13564981 -38.12255859 194.12353516 C-45.08868157 194.11145996 -52.05399618 194.13607309 -59.01998127 194.17867529 C-65.0168685 194.2139918 -71.01349942 194.22589681 -77.01048672 194.21939981 C-80.58514542 194.21578669 -84.15922755 194.22091752 -87.73379135 194.24882889 C-91.72393395 194.27882217 -95.71244848 194.2599745 -99.70263672 194.23681641 C-100.87487793 194.25210388 -102.04711914 194.26739136 -103.25488281 194.28314209 C-110.87223366 194.18564974 -115.94570382 192.81532478 -121.546875 187.4921875 C-126.47539927 181.46463109 -126.11694507 175.5666687 -126.06445312 168.00195312 C-126.0714624 166.75706116 -126.07847168 165.51216919 -126.08569336 164.22955322 C-126.10024578 160.82789809 -126.09688265 157.42722101 -126.08417702 154.02562141 C-126.07399797 150.44785442 -126.08345788 146.87012717 -126.08972168 143.2923584 C-126.09699144 137.27686134 -126.08743607 131.2615609 -126.06835938 125.24609375 C-126.04667095 118.32795907 -126.05358569 111.4102975 -126.075665 104.49217463 C-126.09393348 98.52577803 -126.0963196 92.55952234 -126.08591032 86.59310675 C-126.07972749 83.04187648 -126.07869196 79.49086688 -126.09205627 75.93965149 C-126.1842986 47.5815091 -126.1842986 47.5815091 -121.546875 35.4921875 C-121.23283722 34.66406555 -120.91879944 33.8359436 -120.59524536 32.98272705 C-119.81759434 31.04571369 -118.94908948 29.21734574 -117.984375 27.3671875 C-117.64559326 26.70960449 -117.30681152 26.05202148 -116.95776367 25.37451172 C-106.73421883 6.41048831 -89.0917389 -6.34142821 -68.796875 -12.9453125 C-45.17478475 -18.65316067 -19.6517402 -14.41348173 0 0 Z M-76.875 39.45703125 C-87.29793954 52.14476839 -85.82746569 68.91481987 -85.7421875 84.3515625 C-85.73845044 86.35223244 -85.73560675 88.35290423 -85.73361206 90.35357666 C-85.72603016 95.58135158 -85.70642931 100.80901273 -85.6842041 106.03674316 C-85.66000025 112.3295049 -85.65093874 118.62230499 -85.63929749 124.9151001 C-85.62000107 134.44087466 -85.58164065 143.96640033 -85.546875 153.4921875 C-60.466875 153.4921875 -35.386875 153.4921875 -9.546875 153.4921875 C-9.48862653 137.78906962 -9.48862653 137.78906962 -9.44921875 122.0859375 C-9.43730015 115.67379412 -9.42325654 109.26170829 -9.39599609 102.84960938 C-9.37413821 97.67543154 -9.36227925 92.5013155 -9.35712051 87.32709503 C-9.35344787 85.36091388 -9.34627664 83.39473581 -9.33541489 81.42858124 C-9.03808301 57.20309536 -9.03808301 57.20309536 -20.734375 36.6796875 C-29.8806032 28.03818427 -39.31559733 26.00297742 -51.484375 26.20703125 C-61.53890362 26.67019125 -70.05832888 32.35381865 -76.875 39.45703125 Z " fill="#FA9B2D" transform="translate(301.546875,262.5078125)"/>
<path d="M0 0 C0.66 0.33 1.32 0.66 2 1 C-3.28 6.28 -8.56 11.56 -14 17 C-14 12.95607032 -12.51908749 11.99868382 -9.8125 9.0625 C-9.03519531 8.20785156 -8.25789062 7.35320312 -7.45703125 6.47265625 C-5.09786332 4.09848566 -2.65532732 2.0327639 0 0 Z " fill="#FB852E" transform="translate(206,263)"/>
<path d="M0 0 C0.66 0.33 1.32 0.66 2 1 C-0.64 3.64 -3.28 6.28 -6 9 C-6 6 -6 6 -3.5625 3.375 C-2.716875 2.59125 -1.87125 1.8075 -1 1 C-0.67 0.67 -0.34 0.34 0 0 Z " fill="#FB9439" transform="translate(359,418)"/>
</svg>
