<?xml version="1.0" encoding="UTF-8"?>
<svg version="1.1" xmlns="http://www.w3.org/2000/svg" width="2000" height="2000">
<path d="M0 0 C8.42865961 5.81134421 14.73323569 13.22126863 20.73678386 21.41157007 C21.94909398 23.03036508 23.16147061 24.64911178 24.37597786 26.26625903 C25.23747675 27.41397017 26.0978066 28.56255965 26.95702671 29.71197776 C54.71991312 66.84854642 84.49410637 102.27336698 115.41025048 136.81487727 C116.78180078 138.34751544 118.1522925 139.8811016 119.52171415 141.41564202 C188.57378846 218.78332184 254.91731616 276.91623315 362.08641517 283.3155694 C398.6382004 285.3397477 434.99052543 284.72961899 471.53314006 282.86725855 C472.59524153 282.81425954 473.65734299 282.76126054 474.75162935 282.7066555 C513.94896457 280.74848744 553.09443705 278.06296104 592.08637798 273.54664087 C593.40347153 273.39467632 593.40347153 273.39467632 594.74717304 273.23964179 C602.99032134 272.28505646 611.22822583 271.30412098 619.45306506 270.20194684 C622.36642652 269.81489499 625.2821227 269.44784182 628.19841879 269.0836443 C630.14168522 268.8324241 632.08097402 268.55098996 634.01988834 268.26813436 C644.50236143 266.96528293 654.56154285 268.71495533 663.15814006 275.24225855 C672.83263129 282.85774727 679.44484921 292.31974404 681.34564006 304.61725855 C681.17362499 307.34654844 681.17362499 307.34654844 680.74966419 310.36998796 C680.59298831 311.52754233 680.43631244 312.68509669 680.27488881 313.87772846 C680.09642795 315.14672914 679.91796708 316.41572982 679.73409832 317.72318506 C679.35454137 320.54069592 678.98253856 323.35919676 678.61000144 326.1776433 C678.51040203 326.92611248 678.41080261 327.67458165 678.30818503 328.44573171 C671.92578019 376.54648735 668.04805542 424.8129229 665.63175279 473.26706445 C665.52453054 475.4134658 665.41589353 477.55979695 665.30582708 479.70605433 C659.74131734 588.32579896 665.33834105 680.07152887 740.75579631 763.77350855 C763.5863181 789.03350304 788.16145319 812.31754141 813.53314006 834.99225855 C815.11388355 836.40854007 816.6946092 837.82484151 818.27531707 839.24116278 C846.32952909 864.34344373 874.89121549 888.85395078 904.59687603 911.98823023 C905.28340522 912.52290954 905.96993441 913.05758886 906.67726752 913.60847057 C913.12521849 918.6230783 919.59255637 923.60978229 926.12534841 928.51349486 C928.43573918 930.25000157 930.73725275 931.99806122 933.03814011 933.74713153 C934.5795602 934.90998495 936.13564647 936.05332026 937.69230026 937.19570065 C947.06829779 944.3148982 952.29990166 953.06235252 955.03314006 964.49225855 C956.37208649 977.88172286 954.06699577 990.27948897 945.47561586 1000.93700349 C940.01540699 1007.14968451 934.20927172 1012.12808348 927.55132854 1017.00840235 C925.93253353 1018.22071246 924.31378683 1019.43308909 922.69663958 1020.64759634 C921.54892844 1021.50909523 920.40033896 1022.36942509 919.25092085 1023.22864519 C882.11435219 1050.99153161 846.68953163 1080.76572485 812.14802134 1111.68186897 C810.61538317 1113.05341926 809.08179701 1114.42391098 807.54725659 1115.79333264 C730.17957677 1184.84540695 672.04666546 1251.18893465 665.64732921 1358.35803366 C663.62315091 1394.90981889 664.23327963 1431.26214392 666.09564006 1467.80475855 C666.14863907 1468.86686001 666.20163807 1469.92896148 666.25624311 1471.02324784 C668.21441117 1510.22058306 670.89993757 1549.36605553 675.41625774 1588.35799646 C675.51756744 1589.23605883 675.61887714 1590.11412121 675.72325683 1591.01879153 C676.67784215 1599.26193983 677.65877763 1607.49984432 678.76095177 1615.72468354 C679.14800362 1618.63804501 679.51505679 1621.55374119 679.87925431 1624.47003727 C680.13047451 1626.41330371 680.41190865 1628.35259251 680.69476426 1630.29150683 C682.15735299 1642.05919325 679.47543203 1651.94484529 672.25579631 1661.4024148 C666.60905823 1667.94985957 660.38017232 1672.38163243 652.34564006 1675.61725855 C651.41313899 1675.99966637 650.48063791 1676.38207418 649.51987922 1676.77607012 C643.72581643 1678.38033836 637.80560148 1676.9584632 631.96796978 1676.11924219 C630.59559629 1675.93466112 629.22295779 1675.75204167 627.85008568 1675.57120663 C624.86462996 1675.17775188 621.87990679 1674.77929797 618.89552319 1674.3777951 C571.49487394 1668.05038785 523.888485 1664.31451397 476.13900328 1661.90541548 C473.98869793 1661.79682616 471.83846031 1661.686887 469.6882937 1661.57558447 C360.76085563 1655.94741517 268.85799991 1661.59761126 184.94329631 1737.2461648 C159.59542779 1760.16736597 136.22464293 1784.83475811 113.47064006 1810.30475855 C112.76764744 1811.08976225 112.06465482 1811.87476594 111.34035939 1812.68355763 C85.4239113 1841.6237701 60.08115758 1871.0539071 36.21491802 1901.71602869 C35.67823367 1902.40517503 35.14154932 1903.09432138 34.58860181 1903.80435094 C29.5545279 1910.27602307 24.54617914 1916.76501896 19.62972463 1923.32662969 C17.88753418 1925.64734523 16.13115162 1927.95709669 14.37294429 1930.2656908 C13.20575624 1931.81148187 12.06120103 1933.37428438 10.91779083 1934.93774563 C3.60150006 1944.54324339 -5.77268146 1949.58909153 -17.65435994 1951.61725855 C-30.12195237 1952.90886525 -42.21086518 1949.61709745 -51.97434145 1941.74723434 C-58.18685944 1936.28758229 -63.16183592 1930.48267453 -68.03877461 1923.82294703 C-69.24999858 1922.20415063 -70.46128929 1920.58540266 -71.67471777 1918.96825807 C-72.53545223 1917.82054797 -73.39501522 1916.67195847 -74.25346612 1915.52253933 C-101.99440054 1878.38212254 -131.75360434 1842.95877952 -162.65718353 1808.41963983 C-164.02825328 1806.88700814 -165.39825688 1805.353422 -166.76718271 1803.81887507 C-235.91178715 1726.31856121 -302.31888166 1668.30867597 -409.63434303 1661.9189477 C-446.29371719 1659.89462769 -482.75411662 1660.50534547 -519.40435994 1662.36725855 C-520.46990835 1662.42025755 -521.53545676 1662.47325656 -522.63329452 1662.5278616 C-561.95969092 1664.48604789 -601.23416559 1667.17243517 -640.3559438 1671.68787622 C-641.6772772 1671.83984077 -641.6772772 1671.83984077 -643.02530421 1671.99487531 C-651.29588241 1672.94972146 -659.56120784 1673.93151676 -667.81371297 1675.03257026 C-670.73543167 1675.41918699 -673.65941672 1675.78639283 -676.58396951 1676.1508728 C-678.53585954 1676.40253169 -680.48386449 1676.68379004 -682.43151647 1676.96638274 C-694.0474882 1678.40828812 -703.08074016 1675.56495473 -712.40435994 1668.5274148 C-718.99850725 1662.92925848 -723.42045785 1656.64750979 -726.65435994 1648.61725855 C-727.22776348 1647.21871511 -727.22776348 1647.21871511 -727.81275094 1645.79191828 C-729.417467 1639.99631362 -727.99903479 1634.07284071 -727.16307271 1628.23285913 C-726.97921008 1626.85976965 -726.79730462 1625.48641691 -726.61717951 1624.11283213 C-726.22526348 1621.12584604 -725.82834194 1618.13959051 -725.42836332 1615.15367377 C-719.12584002 1567.7353824 -715.40429842 1520.11294807 -713.00437361 1472.3486951 C-712.89621254 1470.19801064 -712.78670728 1468.04739335 -712.67584437 1465.89684647 C-707.08112773 1357.16790202 -712.56841047 1265.21278546 -788.06060994 1181.4024148 C-810.88900854 1156.13735338 -835.4655252 1132.85266521 -860.84185994 1110.17975855 C-862.42264236 1108.76381974 -864.0034095 1107.34786386 -865.5841614 1105.93189096 C-893.63618902 1080.83867052 -922.19757086 1056.33961533 -951.90558064 1033.22078943 C-952.59211029 1032.68651191 -953.27863994 1032.15223438 -953.98597351 1031.60176663 C-960.43385655 1026.59102138 -966.90118673 1021.60829138 -973.43406939 1016.70873845 C-975.74445809 1014.97373432 -978.04596986 1013.22716766 -980.34686023 1011.47959583 C-981.88827333 1010.31776407 -983.44436283 1009.17548122 -985.00102007 1008.03415495 C-994.37960272 1000.91922883 -999.60886086 992.17116378 -1002.34185994 980.74225855 C-1003.68080637 967.35279424 -1001.37571565 954.95502813 -992.78433573 944.2975136 C-987.32412687 938.08483259 -981.5179916 933.10643362 -974.86004841 928.22611475 C-973.24125341 927.01380463 -971.62250671 925.801428 -970.00535946 924.58692076 C-968.85764832 923.72542187 -967.70905884 922.86509201 -966.55964072 922.0058719 C-929.42307206 894.24298549 -893.9982515 864.46879224 -859.45674121 833.55264813 C-857.92410304 832.18109783 -856.39051689 830.81060611 -854.85597646 829.44118446 C-777.48829664 760.38911015 -719.35538533 694.04558245 -712.95604908 586.87648344 C-710.93187078 550.32469821 -711.5419995 513.97237318 -713.40435994 477.42975855 C-713.45735894 476.36765708 -713.51035795 475.30555562 -713.56496298 474.21126926 C-715.52313104 435.01393404 -718.20865744 395.86846156 -722.72497761 356.87652063 C-722.82628731 355.99845826 -722.92759701 355.12039589 -723.0319767 354.21572557 C-723.98656203 345.97257727 -724.96749751 337.73467278 -726.06967165 329.50983356 C-726.45672349 326.59647209 -726.82377667 323.68077591 -727.18797418 320.76447982 C-727.43919438 318.82121339 -727.72062852 316.88192459 -728.00348413 314.94301027 C-729.46607287 303.17532385 -726.78415191 293.28967181 -719.56451619 283.8321023 C-712.33547327 275.44996052 -702.85807938 269.03958355 -691.65435994 267.61725855 C-687.12231627 267.80551902 -682.67452532 268.46280902 -678.18766987 269.10854578 C-676.81785063 269.29246591 -675.44775925 269.47436843 -674.07742864 269.65443897 C-671.10061002 270.04596393 -668.12459096 270.44290999 -665.14894617 270.84325516 C-617.88899089 277.15223067 -570.42051716 280.86734164 -522.81285119 283.26724488 C-520.66905645 283.37540908 -518.52532895 283.48491443 -516.38167191 283.59577411 C-407.81109746 289.19991628 -316.17294296 283.58779644 -232.50982869 208.21100855 C-207.24645355 185.37903101 -183.95759641 160.8030367 -161.27935994 135.42975855 C-159.86294794 133.84897897 -158.44652206 132.26821183 -157.03008235 130.68745708 C-131.92728324 102.63387874 -107.41765126 74.07156071 -84.28343403 44.36603785 C-83.48141302 43.33624337 -83.48141302 43.33624337 -82.66318955 42.28564497 C-77.64856703 35.83768881 -72.66184099 29.37035158 -67.7581203 22.8375491 C-66.02161433 20.52715871 -64.2735555 18.22564545 -62.52448622 15.92475826 C-61.3616333 14.38333812 -60.21829821 12.82725202 -59.07591802 11.27059841 C-45.26647884 -6.91645968 -19.75121697 -12.24126082 0 0 Z M-27.43821537 378.17457151 C-28.65222228 379.38929134 -29.86056358 380.60968705 -31.06469929 381.83419275 C-31.73031636 382.50303993 -32.39593343 383.17188711 -33.08172071 383.86100239 C-35.32778666 386.12024302 -37.56664723 388.38649596 -39.80572712 390.65265894 C-41.4084239 392.26737106 -43.01161031 393.88159732 -44.61525166 395.49537134 C-48.0778079 398.98125935 -51.53749879 402.46995862 -54.99523365 405.96062899 C-60.4692904 411.48548991 -65.95355727 417.00013636 -71.4400655 422.51262903 C-73.31772063 424.39945554 -75.19536213 426.28629562 -77.07297337 428.1731658 C-77.5423166 428.64481429 -78.01165984 429.11646279 -78.49522559 429.60240366 C-83.84240131 434.97607586 -89.18764594 440.35166669 -94.53180134 445.72834253 C-95.02044943 446.2199578 -95.50909752 446.71157306 -96.01255313 447.21808576 C-103.90910133 455.16322031 -111.79607569 463.11780317 -119.68038413 471.0750813 C-127.78332761 479.25237126 -135.90005359 487.41578402 -144.02802408 495.56820148 C-148.58764496 500.14263403 -153.14053057 504.7233495 -157.6779424 509.31982088 C-161.95399004 513.65146015 -166.2462836 517.96632382 -170.55120099 522.26926661 C-172.12215608 523.84531127 -173.68716197 525.42731379 -175.24545681 527.01587725 C-195.69478524 547.84506043 -195.69478524 547.84506043 -209.67721689 548.74786907 C-210.39868551 548.75052712 -211.12015414 548.75318516 -211.86348546 548.75592375 C-212.7004978 548.76139819 -213.53751014 548.76687264 -214.39988649 548.77251297 C-215.77147798 548.77398013 -215.77147798 548.77398013 -217.17077839 548.77547693 C-218.14608155 548.78041491 -219.12138472 548.78535289 -220.12624252 548.7904405 C-223.40286586 548.80583063 -226.67946958 548.81418026 -229.95611775 548.82258081 C-232.30150729 548.83215814 -234.64689509 548.84216814 -236.99228108 548.85257959 C-243.36786288 548.87965044 -249.7434521 548.90064823 -256.11905968 548.92058158 C-262.1044144 548.94021532 -268.08975014 548.9643673 -274.07508799 548.98850381 C-285.93027528 549.03616364 -297.78547436 549.07943219 -309.64068806 549.1199441 C-321.15697344 549.15930721 -332.67324834 549.20073539 -344.18951619 549.2449441 C-345.25429727 549.2490305 -345.25429727 549.2490305 -346.34058908 549.25319947 C-349.90171563 549.26687908 -353.46284202 549.28059933 -357.02396834 549.29433978 C-386.56741003 549.40827928 -416.1108754 549.51502115 -445.65435994 549.61725855 C-445.65767008 550.79063367 -445.66098023 551.96400879 -445.66439068 553.17294073 C-445.74351912 581.06711069 -445.83278074 608.96123411 -445.93441155 636.85533143 C-445.94692945 640.29347028 -445.95936237 643.73160944 -445.97174275 647.16974878 C-445.97420874 647.85418015 -445.97667474 648.53861151 -445.97921546 649.24378321 C-446.01886895 660.30568099 -446.05164896 671.3675889 -446.08185975 682.42951604 C-446.11304517 693.79188469 -446.15182982 705.15420571 -446.19714999 716.51652843 C-446.2223474 722.89358537 -446.24414857 729.27061236 -446.2577039 735.64770555 C-446.27058565 741.65669931 -446.29270556 747.66558997 -446.32174313 753.67452669 C-446.33077125 755.87342062 -446.33649793 758.07233113 -446.33857358 760.27124262 C-446.3641325 783.24640341 -448.22318863 799.7870971 -464.83034825 816.66931605 C-467.07467794 818.90833244 -469.33472517 821.13071991 -471.59552205 823.35309839 C-473.22365467 824.97925306 -474.85024063 826.60695749 -476.47540486 828.23607874 C-480.86221364 832.62488445 -485.27016621 836.99186777 -489.68241775 841.35507393 C-494.30077727 845.92948243 -498.89913787 850.52390779 -503.49971211 855.11619043 C-511.2145855 862.81182425 -518.94153159 870.49513667 -526.67804158 878.16901636 C-534.64138735 886.06796286 -542.59723838 893.97433676 -550.54327595 901.89069605 C-551.03429116 902.37987219 -551.52530636 902.86904833 -552.03120082 903.37304799 C-554.49479883 905.82750976 -556.95825181 908.28211702 -559.42163277 910.73679662 C-579.8101085 931.05288029 -600.22409476 951.34320293 -620.65435994 971.61725855 C-619.37849318 974.41452646 -618.06339132 976.45501642 -615.88218606 978.6159749 C-615.31472737 979.18309879 -614.74726869 979.75022268 -614.16261429 980.33453214 C-613.22717821 981.25406744 -613.22717821 981.25406744 -612.27284443 982.1921792 C-611.61045551 982.85133802 -610.94806659 983.51049683 -610.26560527 984.18963015 C-608.0402428 986.40187457 -605.80784367 988.60688232 -603.57550251 990.81208277 C-601.98019634 992.39536706 -600.38537983 993.97914487 -598.79101765 995.56337976 C-595.35320327 998.97790295 -591.91256412 1002.3895458 -588.46992123 1005.79920053 C-583.02046748 1011.19776211 -577.581303 1016.60660866 -572.14427388 1022.01767969 C-564.51368149 1029.61069757 -556.88211108 1037.20272396 -549.24688923 1044.79108667 C-548.7623862 1045.27262253 -548.27788317 1045.75415839 -547.77869823 1046.25028624 C-539.94360644 1054.03676181 -532.09907693 1061.81367279 -524.25187699 1069.58794294 C-516.18300473 1077.58246689 -508.128016 1085.59077169 -500.08401042 1093.61032927 C-495.57220667 1098.10732583 -491.05412977 1102.59759034 -486.52027524 1107.07236338 C-482.24934466 1111.28769961 -477.99519626 1115.5192807 -473.75296223 1119.76348925 C-472.1994918 1121.31187101 -470.64006528 1122.85430549 -469.07407391 1124.39002275 C-453.00371726 1140.16302874 -446.73394827 1153.05779805 -446.37588704 1175.91225672 C-446.34329226 1180.01031892 -446.33938072 1184.10819547 -446.33551228 1188.20636988 C-446.32620083 1190.47427202 -446.31603037 1192.74217078 -446.305071 1195.01006556 C-446.27789421 1201.13306023 -446.26265827 1207.25603205 -446.24964297 1213.379071 C-446.23395827 1219.79058054 -446.20718518 1226.20204379 -446.18161213 1232.61352015 C-446.14021578 1243.36385939 -446.10559487 1254.1141956 -446.07623494 1264.864573 C-446.04599223 1275.93132335 -446.01161594 1286.9980483 -445.97174275 1298.06476831 C-445.9692812 1298.74836189 -445.96681965 1299.43195547 -445.96428351 1300.136264 C-445.9519078 1303.56608239 -445.93945148 1306.99590048 -445.9269551 1310.42571843 C-445.82359552 1338.82286288 -445.73446983 1367.22003965 -445.65435994 1395.61725855 C-444.43791137 1395.61872511 -443.22146281 1395.62019167 -441.96815217 1395.62170267 C-413.06427322 1395.65743775 -384.16048284 1395.71372665 -355.25669823 1395.7951795 C-351.69581179 1395.80519644 -348.13492489 1395.81504066 -344.57403767 1395.82477808 C-343.86515677 1395.82671945 -343.15627587 1395.82866083 -342.42591373 1395.83066103 C-330.96173167 1395.86164586 -319.49756961 1395.87865184 -308.03335359 1395.89045277 C-296.2619044 1395.90288259 -284.49055983 1395.93042519 -272.71917671 1395.97187161 C-266.11076808 1395.99470923 -259.50247466 1396.01016908 -252.8940202 1396.0091424 C-246.66990441 1396.00839594 -240.44611843 1396.02634205 -234.22208798 1396.05842638 C-231.94173003 1396.06692279 -229.66133508 1396.0686771 -227.38096821 1396.06306124 C-208.9487992 1396.02372585 -195.79262144 1398.23010238 -182.22641045 1411.65796411 C-181.61840145 1412.27471163 -181.01039245 1412.89145916 -180.38395894 1413.526896 C-179.71065008 1414.19764158 -179.03734122 1414.86838717 -178.34362906 1415.55945837 C-176.1118265 1417.78635893 -173.89084711 1420.02373644 -171.6697408 1422.26130152 C-170.06316719 1423.86872217 -168.45593105 1425.47548088 -166.84808552 1427.08162928 C-162.50110602 1431.42775044 -158.16341819 1435.7830383 -153.82737243 1440.14006424 C-149.28839961 1444.69783049 -144.7408915 1449.24706452 -140.19429219 1453.79722071 C-132.56944294 1461.43032547 -124.94985154 1469.06863702 -117.33429158 1476.71100855 C-109.49342571 1484.57945028 -101.64938627 1492.444706 -93.80108845 1500.30573511 C-93.31657268 1500.79103905 -92.83205692 1501.27634299 -92.33285885 1501.77635311 C-89.90194272 1504.21118461 -87.47096439 1506.645954 -85.03995514 1509.08069253 C-64.90177297 1529.24992825 -44.77459955 1549.43012471 -24.65435994 1569.61725855 C-21.86353848 1568.34329325 -19.82002814 1567.03088299 -17.6600877 1564.85790873 C-17.09398042 1564.29331674 -16.52787313 1563.72872475 -15.94461107 1563.14702392 C-15.33275001 1562.52660869 -14.72088895 1561.90619347 -14.09048665 1561.26697779 C-13.43258912 1560.60796685 -12.7746916 1559.94895591 -12.09685779 1559.26997495 C-9.88908677 1557.05612232 -7.68855131 1554.83521364 -5.48785603 1552.61432886 C-3.90791145 1551.02727301 -2.32749624 1549.44068555 -0.74664509 1547.85453272 C2.65987442 1544.43490064 6.06336094 1541.01228772 9.46464717 1537.5874505 C14.84659092 1532.16894372 20.23720192 1526.75911694 25.62942302 1521.35084009 C33.19272414 1513.76370651 40.7539537 1506.17452132 48.31194866 1498.5821023 C49.03134038 1497.85944021 49.03134038 1497.85944021 49.76526527 1497.12217888 C56.56235973 1490.29390262 63.3564424 1483.46263753 70.14930086 1476.63014755 C70.62707619 1476.14958558 71.10485153 1475.66902362 71.59710491 1475.17389917 C72.07429326 1474.69392376 72.55148162 1474.21394834 73.04313023 1473.71942821 C81.01614503 1465.70025175 88.99705706 1457.68899849 96.98409772 1449.68378758 C102.34186688 1444.31295746 107.69050659 1438.93324979 113.03250992 1433.54674053 C116.36551203 1430.1902078 119.70691502 1426.84213647 123.05070293 1423.49635172 C124.59488163 1421.94789296 126.13563426 1420.3960085 127.67260158 1418.84039164 C139.29271252 1407.08482484 150.27804114 1396.39826168 167.76274627 1396.20384151 C168.66646734 1396.20868908 169.57018841 1396.21353666 170.50129497 1396.21853113 C171.97678323 1396.20856089 171.97678323 1396.20856089 173.48207933 1396.19838923 C176.75710056 1396.17983169 180.03175411 1396.18235968 183.3068217 1396.1848855 C185.6628043 1396.17586394 188.0187822 1396.16553576 190.37475383 1396.15400171 C196.75626121 1396.12645209 203.13767946 1396.11714989 209.51923859 1396.11114764 C215.51705134 1396.10271059 221.51480712 1396.08057925 227.51258164 1396.05852916 C239.38717418 1396.01531761 251.26176151 1395.98531876 263.13641155 1395.9636941 C274.6670366 1395.94266749 286.19761897 1395.91537775 297.72820842 1395.87970972 C298.79549957 1395.87641148 298.79549957 1395.87641148 299.88435216 1395.87304661 C303.4541098 1395.86197654 307.02386705 1395.85078381 310.59362411 1395.83953011 C340.17758997 1395.74642482 369.76158355 1395.67501115 399.34564006 1395.61725855 C399.34710662 1394.39565625 399.34857318 1393.17405396 399.35008419 1391.91543341 C399.38581895 1362.88936531 399.44210739 1333.86338808 399.52356102 1304.83741457 C399.53357796 1301.26150685 399.54342218 1297.68559868 399.55315959 1294.10969019 C399.55510097 1293.39781867 399.55704234 1292.68594716 399.55904254 1291.95250378 C399.59002772 1280.43982275 399.60703345 1268.92716164 399.61883429 1257.41444679 C399.63126393 1245.5932773 399.65880612 1233.77221198 399.70025313 1221.95110828 C399.72309117 1215.31475407 399.73855057 1208.67851458 399.73752391 1202.04211473 C399.73677748 1195.79173469 399.75472263 1189.54168309 399.78680789 1183.29138803 C399.79530461 1181.00135468 399.79705841 1178.71128447 399.79144275 1176.42124224 C399.75220762 1157.95744353 401.9338667 1144.78039088 415.38634562 1131.18930906 C416.00309315 1130.58130006 416.61984067 1129.97329106 417.25527751 1129.34685755 C418.26139589 1128.33689426 418.26139589 1128.33689426 419.28783989 1127.30652767 C421.51474045 1125.07472512 423.75211795 1122.85374572 425.98968303 1120.63263941 C427.59710369 1119.0260658 429.2038624 1117.41882967 430.81001079 1115.81098413 C435.15613195 1111.46400463 439.51141981 1107.12631681 443.86844575 1102.79027104 C448.42621201 1098.25129823 452.97544604 1093.70379011 457.52560222 1089.1571908 C465.15870699 1081.53234155 472.79701854 1073.91275016 480.43939006 1066.29719019 C488.30783179 1058.45632433 496.17308751 1050.61228489 504.03411663 1042.76398706 C504.51942056 1042.2794713 505.0047245 1041.79495553 505.50473462 1041.29575747 C507.93956612 1038.86484133 510.37433552 1036.433863 512.80907404 1034.00285375 C532.97830976 1013.86467158 553.15850622 993.73749817 573.34564006 973.61725855 C572.07167477 970.8264371 570.7592645 968.78292675 568.58629024 966.62298632 C568.02169825 966.05687903 567.45710627 965.49077174 566.87540543 964.90750968 C566.25499021 964.29564862 565.63457499 963.68378756 564.9953593 963.05338526 C564.33634836 962.39548773 563.67733743 961.73759021 562.99835646 961.0597564 C560.78450383 958.85198538 558.56359515 956.65144993 556.34271038 954.45075464 C554.75565452 952.87081006 553.16906707 951.29039485 551.58291423 949.7095437 C548.16328216 946.30302419 544.74066924 942.89953767 541.31583202 939.49825144 C535.89732523 934.1163077 530.48749846 928.72569669 525.07922161 923.33347559 C517.49208802 915.77017447 509.90290284 908.20894491 502.31048381 900.65094995 C501.58782172 899.93155823 501.58782172 899.93155823 500.8505604 899.19763334 C494.02228413 892.40053889 487.19101904 885.60645621 480.35852906 878.81359775 C479.63768612 878.09693475 479.63768612 878.09693475 478.90228069 877.3657937 C478.42230527 876.88860535 477.94232985 876.41141699 477.44780973 875.91976838 C469.42863326 867.94675358 461.41738 859.96584155 453.4121691 851.97880089 C448.04133897 846.62103174 442.66163131 841.27239202 437.27512205 835.93038869 C433.91858931 832.59738658 430.57051798 829.2559836 427.22473323 825.91219568 C425.67627447 824.36801699 424.12439001 822.82726436 422.56877315 821.29029703 C410.81320635 809.67018609 400.1266432 798.68485747 399.93222302 781.20015234 C399.9370706 780.29643127 399.94191817 779.3927102 399.94691265 778.46160364 C399.94026582 777.4779448 399.93361899 776.49428597 399.92677075 775.48081928 C399.90821321 772.20579806 399.91074119 768.9311445 399.91326702 765.65607691 C399.90424546 763.30009431 399.89391727 760.94411641 399.88238323 758.58814478 C399.8548336 752.20663741 399.8455314 745.82521915 399.83952916 739.44366002 C399.8310921 733.44584728 399.80896076 727.44809149 399.78691068 721.45031697 C399.74369913 709.57572443 399.71370027 697.70113711 399.69207561 685.82648706 C399.671049 674.29586202 399.64375927 662.76527965 399.60809124 651.23469019 C399.604793 650.16739904 399.604793 650.16739904 399.60142813 649.07854646 C399.59035806 645.50878881 399.57916533 641.93903157 399.56791162 638.3692745 C399.47480633 608.78530865 399.40339266 579.20131506 399.34564006 549.61725855 C397.52234991 549.61505871 397.52234991 549.61505871 395.6622256 549.61281443 C366.77443733 549.57707243 337.88673763 549.5207736 308.99904369 549.4393376 C305.43944602 549.42932076 301.87984789 549.41947653 298.32024944 549.40973902 C297.61163085 549.40779764 296.90301226 549.40585627 296.17292038 549.40385607 C284.71588041 549.37287879 273.25886045 549.35586738 261.80178651 549.34406433 C250.03598257 549.33163057 238.27028322 549.30407916 226.50454533 549.26264548 C219.90001725 549.23981697 213.29560429 549.22434749 206.69103038 549.2253747 C200.46937392 549.22612168 194.24804697 549.20815464 188.02647579 549.17609072 C185.74815042 549.16760086 183.46978806 549.16583553 181.19145381 549.17145586 C158.65353121 549.21963038 146.03167792 544.57358699 129.9615773 528.59172952 C127.76030174 526.38267183 125.56562848 524.16717745 123.37103069 521.95148706 C121.77742412 520.35375494 120.18313675 518.75670161 118.58822429 517.16027308 C115.170342 513.73632078 111.75720729 510.30773082 108.34773052 506.87540865 C102.96062907 501.45241389 97.56254887 496.04043679 92.16290081 490.6299386 C84.59986562 483.04951766 77.04138771 475.4645926 69.48724163 467.87531519 C69.00894167 467.39479411 68.53064171 466.91427302 68.03784782 466.4191907 C66.09929774 464.47162306 64.16075685 462.52404629 62.22222939 460.57645613 C56.86951082 455.19884159 51.51555878 449.82245591 46.16106975 444.44660425 C45.68093451 443.96455003 45.20079927 443.48249581 44.70611447 442.98583389 C36.71101986 434.9590725 28.71193399 426.93630007 20.71045244 418.91590494 C15.33882191 413.53085417 9.9724843 408.14059892 4.61019599 402.74624598 C1.28517385 399.40318999 -2.04388858 396.06417998 -5.37404454 392.72623873 C-6.92303951 391.17187844 -8.47029166 389.6157792 -10.01571476 388.05786753 C-12.11627592 385.94076899 -14.222807 383.82980015 -16.33099568 381.72030115 C-16.94868242 381.09474237 -17.56636917 380.46918358 -18.20277369 379.82466847 C-22.53585831 374.9785432 -22.53585831 374.9785432 -27.43821537 378.17457151 Z " fill="#DA9D9D" transform="translate(1023.6543599367142,27.382741451263428)"/>
</svg>
