<?xml version="1.0" encoding="UTF-8"?>
<svg version="1.1" xmlns="http://www.w3.org/2000/svg" width="512" height="512">
<path d="M0 0 C0.64420898 0.21962402 1.28841797 0.43924805 1.95214844 0.66552734 C27.78116805 9.6769853 49.90944138 28.36635668 62.03125 53.015625 C73.28015263 77.10838056 76.70951139 106.52264424 68 132 C67.79101074 132.62825684 67.58202148 133.25651367 67.36669922 133.90380859 C62.04936621 149.56903011 53.56423791 162.29706058 42 174 C41.35675781 174.71542969 40.71351563 175.43085938 40.05078125 176.16796875 C25.37299807 192.11931229 0.60750903 203.21082498 -20.93579102 204.12451172 C-54.42873632 204.91154583 -81.06336124 197.85604424 -105.81567383 174.56787109 C-123.32208176 157.62225692 -135.79179369 133.11632219 -136.23828125 108.44921875 C-136.43776259 94.53314884 -136.56039526 81.29997626 -132 68 C-131.78037598 67.35579102 -131.56075195 66.71158203 -131.33447266 66.04785156 C-122.3230147 40.21883195 -103.63364332 18.09055862 -78.984375 5.96875 C-54.90771532 -5.27263747 -25.46001927 -8.72992168 0 0 Z M-74 52 C-74.71671875 52.60457031 -75.4334375 53.20914063 -76.171875 53.83203125 C-86.37854791 63.22770883 -94.13712941 77.39349789 -95.17700195 91.38085938 C-95.46426141 102.92617192 -95.66784883 113.24099106 -91 124 C-90.63777344 124.87527344 -90.27554688 125.75054687 -89.90234375 126.65234375 C-82.86685408 142.13042103 -69.51841767 153.83848774 -53.9375 160.25 C-36.91331734 165.96474679 -18.88616431 164.80499822 -2.75927734 156.93896484 C12.70889464 148.68326273 23.52031937 134.87655607 29.23828125 118.54296875 C33.25601008 105.12993559 32.55873161 88.81242073 27 76 C26.45666016 74.68708984 26.45666016 74.68708984 25.90234375 73.34765625 C18.86685408 57.86957897 5.51841767 46.16151226 -10.0625 39.75 C-32.50424342 32.21666441 -55.98988803 36.74950196 -74 52 Z " fill="#FA972C" transform="translate(192,240)"/>
<path d="M0 0 C6.86444833 4.93388203 12.89554542 10.34406264 18.8269043 16.35742188 C19.68928711 17.20820312 20.55166992 18.05898437 21.44018555 18.93554688 C28.2745179 25.80147091 34.07543842 31.90796069 34.58081055 41.90820312 C34.24519552 48.2848887 31.47136599 53.24239293 27.18237305 57.88085938 C22.76578807 61.6494127 17.25969385 62.99239914 11.4909668 62.68823242 C1.8372202 61.12204149 -4.13078602 54.38426487 -10.6105957 47.60742188 C-11.58011085 46.61277295 -12.55080645 45.61927322 -13.52270508 44.62695312 C-15.87632376 42.21478671 -18.21740802 39.79171693 -20.5480957 37.35742188 C-23.7281049 38.86296134 -25.7632515 40.40272081 -28.1730957 42.98242188 C-29.9621582 44.89648437 -29.9621582 44.89648437 -31.5480957 46.35742188 C-32.2080957 46.35742188 -32.8680957 46.35742188 -33.5480957 46.35742188 C-33.8780957 47.34742188 -34.2080957 48.33742187 -34.5480957 49.35742188 C-35.2080957 49.35742188 -35.8680957 49.35742188 -36.5480957 49.35742188 C-36.5480957 50.01742187 -36.5480957 50.67742187 -36.5480957 51.35742188 C-37.2080957 51.35742188 -37.8680957 51.35742188 -38.5480957 51.35742188 C-38.5480957 52.01742187 -38.5480957 52.67742187 -38.5480957 53.35742188 C-39.84043177 54.73052895 -41.17246716 56.06777011 -42.5480957 57.35742188 C-39.70731482 60.82948739 -36.81468085 64.13562244 -33.58325195 67.24804688 C-33.05441406 67.76012695 -32.52557617 68.27220703 -31.98071289 68.79980469 C-30.92099789 69.81863858 -29.85289434 70.82883651 -28.77563477 71.82910156 C-24.48857551 75.96196986 -22.04221384 80.15678275 -21.11450195 86.16601562 C-21.10317153 93.79139024 -22.40500662 99.12702476 -27.7980957 104.66992188 C-33.50929968 108.17452432 -38.75626881 110.08511761 -45.5480957 109.35742188 C-53.56563712 107.30946293 -57.94075955 102.55719416 -63.5480957 96.66992188 C-64.41821289 95.77724609 -65.28833008 94.88457031 -66.18481445 93.96484375 C-68.31774462 91.7733166 -70.43807082 89.57097304 -72.5480957 87.35742188 C-77.66655683 91.6342971 -82.42638934 96.12087835 -87.10058594 100.87573242 C-87.82027557 101.6033075 -88.53996521 102.33088257 -89.28146362 103.08050537 C-90.83311868 104.64926534 -92.3837248 106.21906338 -93.93337822 107.78980064 C-97.23449027 111.13318105 -100.54509771 114.46709122 -103.8551569 117.80160999 C-110.00675208 123.99884169 -116.15447179 130.1997927 -122.28564453 136.41723633 C-126.56224148 140.7532749 -130.85099296 145.0769585 -135.1479969 149.39277077 C-136.77877051 151.03526917 -138.40500442 152.68228815 -140.02651787 154.33392906 C-142.29493853 156.64344156 -144.57855277 158.93685849 -146.86621094 161.22729492 C-147.52775681 161.90838821 -148.18930267 162.58948151 -148.87089539 163.29121399 C-154.03864047 168.41456999 -158.66298974 170.94116052 -166.0480957 171.73242188 C-171.65344878 171.13184833 -175.86718372 169.69451095 -180.2980957 166.16992188 C-184.95488859 160.34893077 -186.97803184 155.54214764 -187.0793457 148.04492188 C-185.73467364 141.24246318 -181.87372389 136.08893498 -177.03616333 131.31736755 C-176.49134398 130.76419155 -175.94652464 130.21101554 -175.38519561 129.64107662 C-173.57401191 127.80708455 -171.74902266 125.98752007 -169.92358398 124.16772461 C-168.61487056 122.84866938 -167.30698492 121.52879243 -165.99986267 120.2081604 C-162.45724025 116.63456007 -158.90190417 113.07387618 -155.3431344 109.51636386 C-152.36556393 106.53796086 -149.39372808 103.55386675 -146.42167747 100.56995732 C-139.4029614 93.52388829 -132.37329948 86.48886987 -125.3371582 79.46020508 C-118.09957308 72.22985127 -110.88252804 64.97944579 -103.67507565 57.71906513 C-97.47002821 51.47011528 -91.2513997 45.23490356 -85.02210224 39.0101276 C-81.30915661 35.29949508 -77.60163021 31.58383769 -73.90750504 27.85445976 C-70.42806734 24.34286162 -66.93186313 20.84883281 -63.42262459 17.36702347 C-62.1452502 16.09407205 -60.8736907 14.81525126 -59.60881996 13.5298748 C-43.70570639 -2.61323262 -21.40302751 -13.79702684 0 0 Z " fill="#FB6C11" transform="translate(423.548095703125,89.642578125)"/>
</svg>
