<?xml version="1.0" encoding="UTF-8"?>
<svg version="1.1" xmlns="http://www.w3.org/2000/svg" width="2000" height="502">
<path d="M0 0 C4.78402208 2.67506992 7.83430019 5.94845277 11.0168457 10.31323242 C40.16255917 49.88028234 40.16255917 49.88028234 82.44433594 71.04736328 C105.71470904 74.25280546 130.00758299 72.5927425 153.2795105 70.02809143 C154.6174606 69.88821037 154.6174606 69.88821037 155.98243999 69.74550343 C157.63512154 69.56755541 159.28591146 69.37051637 160.93349171 69.15028667 C164.61676553 68.75323055 166.64957902 68.79988151 169.90351868 70.65814209 C173.28797839 74.43872609 174.05948797 76.64837481 173.83435059 81.76371765 C173.65700317 83.25738983 173.46860577 84.74977538 173.27148438 86.2409668 C173.07537543 87.94838241 172.88314336 89.6562465 172.69421387 91.36447144 C172.59329941 92.27129543 172.49238495 93.17811943 172.38841248 94.11242294 C166.77414819 144.22616909 166.77414819 144.22616909 185.45910645 189.02220154 C200.39074315 206.55429958 218.33543832 221.78794382 236.69818878 235.61867809 C241.74502611 239.44118238 241.74502611 239.44118238 242.34375 243.1015625 C242.42109375 244.35066406 242.42109375 244.35066406 242.5 245.625 C242.5721875 246.44226563 242.644375 247.25953125 242.71875 248.1015625 C240.80146375 255.83322772 233.00353433 260.69550557 226.93170834 265.24275875 C190.90487169 292.02876337 190.90487169 292.02876337 172.13916016 331.03369141 C169.07504602 353.83314635 170.62203058 377.55621668 172.96076965 400.36897278 C173.04738043 401.2466075 173.1339912 402.12424223 173.22322655 403.02847195 C173.38860768 404.65129204 173.56955379 406.2726405 173.76975441 407.89153385 C174.27996461 412.83928694 173.77841781 415.85471869 171 420 C169.3319397 421.91343689 169.3319397 421.91343689 167 423 C164.1200638 422.96485059 161.52588065 422.76235122 158.68896484 422.38500977 C156.94097955 422.18916724 155.19259695 421.99684787 153.44389343 421.80752563 C152.51297064 421.70411488 151.58204784 421.60070412 150.62291527 421.4941597 C99.59990748 415.68677476 99.59990748 415.68677476 53.90563965 434.42878723 C36.45286709 449.27284613 21.22410654 467.19016488 7.60793114 485.57376957 C5.36192144 488.54753712 3.60184409 490.81262486 0 492 C-5.13287424 492.46662493 -7.84684643 492.00505774 -12 489 C-13.7692877 486.93379 -15.38931235 484.89317117 -16.99511719 482.70849609 C-47.76922027 441.29257564 -47.76922027 441.29257564 -92.73940086 420.46608925 C-115.00754075 418.06041958 -137.98640304 419.50319392 -160.1917572 422.05966187 C-161.526966 422.20228423 -161.526966 422.20228423 -162.88914871 422.34778786 C-164.5357187 422.5281914 -166.18001946 422.73152359 -167.82018661 422.96301842 C-171.85153396 423.39804133 -174.320584 423.20234544 -177.47212219 420.71075439 C-180 418 -180 418 -181 415 C-180.78150575 412.27847149 -180.49581089 409.60124044 -180.15795898 406.89428711 C-173.15858276 353.86726909 -173.15858276 353.86726909 -190.41975307 305.50052929 C-203.8988757 288.70899319 -220.73581186 274.30052128 -237.73718262 261.17758179 C-238.75034845 260.3939443 -238.75034845 260.3939443 -239.78398228 259.59447575 C-241.038658 258.63283269 -242.3014268 257.68161394 -243.57376766 256.74346828 C-246.97575616 254.1567867 -248.92803356 252.18264945 -250 248 C-250.11043372 242.14701289 -248.09941559 239.42786039 -244.37103271 235.29638672 C-241.11699942 232.14479847 -237.55390131 229.48098501 -233.93162441 226.77771664 C-197.83419471 199.97003259 -197.83419471 199.97003259 -179.13916016 160.85205078 C-176.06980699 137.76746755 -177.62672538 113.76835371 -179.96076965 90.67018127 C-180.04738043 89.78206001 -180.1339912 88.89393875 -180.22322655 87.97890472 C-180.389009 86.33337173 -180.57007133 84.68927233 -180.76975441 83.04750824 C-181.11698838 79.64732478 -181.14108582 77.32901283 -179.78248596 74.16075134 C-176.56976488 70.26625145 -176.56976488 70.26625145 -174 69 C-171.1200638 69.03514941 -168.52588065 69.23764878 -165.68896484 69.61499023 C-163.94097955 69.81083276 -162.19259695 70.00315213 -160.44389343 70.19247437 C-159.51297064 70.29588512 -158.58204784 70.39929588 -157.62291527 70.5058403 C-106.59990748 76.31322524 -106.59990748 76.31322524 -60.90563965 57.57121277 C-43.45286709 42.72715387 -28.22410654 24.80983512 -14.60793114 6.42623043 C-10.2957549 0.71681174 -7.19045879 -0.74384056 0 0 Z M-5.6118927 98.50509644 C-6.30820297 99.20965973 -7.00451324 99.91422302 -7.72192383 100.64013672 C-8.50976761 101.43451141 -9.29761139 102.22888611 -10.10932922 103.04733276 C-10.96657089 103.91600983 -11.82381256 104.78468689 -12.70703125 105.6796875 C-14.50832319 107.49362897 -16.30976004 109.30742654 -18.11132812 111.12109375 C-20.96450613 113.99800891 -23.81523795 116.87732738 -26.66333008 119.75927734 C-29.40177161 122.52968255 -32.14819172 125.2921112 -34.89453125 128.0546875 C-35.74570023 128.9193161 -36.5968692 129.7839447 -37.47383118 130.67477417 C-38.27113144 131.47545319 -39.0684317 132.2761322 -39.88989258 133.10107422 C-40.58858963 133.8072287 -41.28728668 134.51338318 -42.00715637 135.24093628 C-45.93838712 138.71099549 -48.8409775 139.25422699 -54.05371094 139.31884766 C-55.27467468 139.33871735 -56.49563843 139.35858704 -57.75360107 139.37905884 C-59.06725647 139.39061005 -60.38091187 139.40216125 -61.734375 139.4140625 C-63.096305 139.43277946 -64.45822348 139.45235328 -65.82012939 139.4727478 C-69.39733067 139.5240195 -72.97456952 139.56367152 -76.55194092 139.60089111 C-80.20529437 139.64096205 -83.85849218 139.69204025 -87.51171875 139.7421875 C-94.67437229 139.83888794 -101.83710128 139.92331128 -109 140 C-109.00364563 140.73614029 -109.00729126 141.47228058 -109.01104736 142.23072815 C-109.04901292 149.18952655 -109.1059625 156.14794265 -109.18390274 163.10640049 C-109.22330663 166.68333759 -109.25552932 170.26003115 -109.27099609 173.8371582 C-109.28621021 177.29340815 -109.32073768 180.74898822 -109.36830902 184.20493889 C-109.39022927 186.15618051 -109.39246965 188.10761138 -109.39434814 190.05897522 C-109.60192077 202.69858968 -113.89187809 207.35316546 -122.703125 215.99609375 C-123.54091492 216.82963882 -124.37870483 217.6631839 -125.24188232 218.52198792 C-127.9042623 221.16765235 -130.5769113 223.80266014 -133.25 226.4375 C-135.06318928 228.23563334 -136.87569699 230.03445424 -138.6875 231.83398438 C-143.11713882 236.23064841 -147.55524286 240.61862305 -152 245 C-150.59107886 248.20301219 -148.91786306 250.31383294 -146.42407227 252.75537109 C-145.69313858 253.47647064 -144.9622049 254.19757019 -144.2091217 254.94052124 C-143.4195256 255.71038361 -142.6299295 256.48024597 -141.81640625 257.2734375 C-140.15027088 258.91914961 -138.48425908 260.56498683 -136.81835938 262.2109375 C-134.1896113 264.79620474 -131.55845593 267.37896135 -128.92456055 269.95898438 C-126.38203623 272.45315905 -123.84884125 274.95652537 -121.31640625 277.4609375 C-120.52883438 278.2267514 -119.74126251 278.99256531 -118.92982483 279.78158569 C-118.19573898 280.50898956 -117.46165314 281.23639343 -116.70532227 281.98583984 C-116.06071548 282.61775238 -115.4161087 283.24966492 -114.75196838 283.90072632 C-111.00475205 288.39078031 -109.62881597 292.38824562 -109.56762695 298.18896484 C-109.53793571 299.99015274 -109.53793571 299.99015274 -109.50764465 301.82772827 C-109.50125473 303.10918732 -109.49486481 304.39064636 -109.48828125 305.7109375 C-109.4714189 307.04759353 -109.45326657 308.38423386 -109.43388367 309.72085571 C-109.38654567 313.2224232 -109.35663223 316.72392699 -109.33044434 320.22570801 C-109.30055642 323.80554785 -109.25405461 327.38516856 -109.20898438 330.96484375 C-109.12313616 337.9764373 -109.05570917 344.98810395 -109 352 C-108.24911102 352.00364563 -107.49822205 352.00729126 -106.72457886 352.01104736 C-99.6329954 352.04898281 -92.54187399 352.10589794 -85.45063591 352.18390274 C-81.80528898 352.22333889 -78.16018219 352.25554588 -74.51464844 352.27099609 C-70.99356924 352.28618879 -67.47315041 352.32067882 -63.95236588 352.36830902 C-61.96174418 352.39027132 -59.97093606 352.39247149 -57.98019409 352.39434814 C-45.94579924 352.5887283 -41.25528733 357.44422193 -33.1015625 365.703125 C-32.26660248 366.54091492 -31.43164246 367.37870483 -30.57138062 368.24188232 C-27.91783717 370.90657916 -25.27135085 373.57816186 -22.625 376.25 C-20.82207652 378.0629595 -19.01869609 379.8754647 -17.21484375 381.6875 C-12.80458888 386.11975102 -8.40010039 390.55766922 -4 395 C1.28178184 390.59192222 6.18156298 385.93839406 11.015625 381.046875 C11.75327087 380.3054425 12.49091675 379.56401001 13.25091553 378.80010986 C15.5863996 376.45249822 17.91859457 374.10166174 20.25 371.75 C23.33567349 368.63775859 26.42462489 365.52882516 29.515625 362.421875 C30.22189026 361.7073114 30.92815552 360.9927478 31.65582275 360.25653076 C32.31370789 359.59534241 32.97159302 358.93415405 33.64941406 358.25292969 C34.22564514 357.67146179 34.80187622 357.0899939 35.39556885 356.49090576 C38.99072582 353.15013278 41.25593343 352.7392787 46.03198242 352.68115234 C47.27304245 352.66128265 48.51410248 352.64141296 49.79277039 352.62094116 C51.14700136 352.60906482 52.50123422 352.59740196 53.85546875 352.5859375 C55.24124812 352.56722683 56.62701609 352.54765348 58.01277161 352.5272522 C61.65739216 352.47591406 65.30204965 352.43629756 68.94683838 352.39910889 C72.66712597 352.35907964 76.38725966 352.30798241 80.10742188 352.2578125 C87.40484235 352.16103338 94.70233724 352.07663517 102 352 C102.00364563 351.24911102 102.00729126 350.49822205 102.01104736 349.72457886 C102.04898281 342.6329954 102.10589794 335.54187399 102.18390274 328.45063591 C102.22333889 324.80528898 102.25554588 321.16018219 102.27099609 317.51464844 C102.28618879 313.99356924 102.32067882 310.47315041 102.36830902 306.95236588 C102.39027132 304.96174418 102.39247149 302.97093606 102.39434814 300.98019409 C102.5887283 288.94579924 107.44422193 284.25528733 115.703125 276.1015625 C116.54091492 275.26660248 117.37870483 274.43164246 118.24188232 273.57138062 C120.90657916 270.91783717 123.57816186 268.27135085 126.25 265.625 C128.0629595 263.82207652 129.8754647 262.01869609 131.6875 260.21484375 C136.11975102 255.80458888 140.55766922 251.40010039 145 247 C143.57405147 243.74424248 141.84258057 241.60745686 139.31640625 239.12109375 C138.56222412 238.37351807 137.80804199 237.62594238 137.03100586 236.85571289 C136.21639893 236.05770264 135.40179199 235.25969238 134.5625 234.4375 C133.72662354 233.60919678 132.89074707 232.78089355 132.02954102 231.92749023 C129.35776298 229.280153 126.67968538 226.63933157 124 224 C120.47344941 220.52655631 116.95348767 217.04663198 113.4375 213.5625 C112.62289307 212.76448975 111.80828613 211.96647949 110.96899414 211.14428711 C110.21481201 210.39671143 109.46062988 209.64913574 108.68359375 208.87890625 C108.01900146 208.2247876 107.35440918 207.57066895 106.66967773 206.89672852 C103.25668837 203.0196245 102.7447296 200.07485425 102.68115234 194.94628906 C102.65134781 193.11484344 102.65134781 193.11484344 102.62094116 191.24639893 C102.60361435 189.27591583 102.60361435 189.27591583 102.5859375 187.265625 C102.56722054 185.903695 102.54764672 184.54177652 102.5272522 183.17987061 C102.4759805 179.60266933 102.43632848 176.02543048 102.39910889 172.44805908 C102.35903795 168.79470563 102.30795975 165.14150782 102.2578125 161.48828125 C102.16111206 154.32562771 102.07668872 147.16289872 102 140 C101.24911102 139.99635437 100.49822205 139.99270874 99.72457886 139.98895264 C92.6329954 139.95101719 85.54187399 139.89410206 78.45063591 139.81609726 C74.80528898 139.77666111 71.16018219 139.74445412 67.51464844 139.72900391 C63.99356924 139.71381121 60.47315041 139.67932118 56.95236588 139.63169098 C54.96174418 139.60972868 52.97093606 139.60752851 50.98019409 139.60565186 C38.94670836 139.41128639 34.27258714 134.57012376 26.13671875 126.296875 C24.88783623 125.04019012 24.88783623 125.04019012 23.61372375 123.75811768 C20.96683261 121.09347154 18.32675871 118.42220435 15.6875 115.75 C13.02949846 113.06442335 10.37006263 110.38030689 7.7077179 107.69903564 C6.05343307 106.03244408 4.40182778 104.36318788 2.75309753 102.69110107 C2.01175064 101.94322327 1.27040375 101.19534546 0.5065918 100.42480469 C-0.14815628 99.76180359 -0.80290436 99.09880249 -1.47749329 98.41571045 C-3.57600715 96.46439688 -3.50290938 96.53584421 -5.6118927 98.50509644 Z " fill="#DA9C9C" transform="translate(269,5)"/>
<path d="M0 0 C9.57 0 19.14 0 29 0 C37.44560811 8.44560811 37.44560811 8.44560811 39.37890625 12.28515625 C41.81859479 16.80475937 44.70112598 20.58136003 48 24.5 C48.9934282 25.72606128 49.9829927 26.95526284 50.96875 28.1875 C51.46375 28.80625 51.95875 29.425 52.46875 30.0625 C55.19105012 33.50704301 57.84365803 37.00450174 60.5 40.5 C65.14369798 46.61038393 69.87602619 52.63744132 74.68920898 58.61499023 C78.28195196 63.08317066 81.79932439 67.60292781 85.28198242 72.15722656 C89.12948033 77.18472632 93.04433654 82.15738802 96.96875 87.125 C101.34760688 92.72271395 105.66681393 98.36685811 110 104 C110.33 69.68 110.66 35.36 111 0 C124.2 0 137.4 0 151 0 C151 58.41 151 116.82 151 177 C121 177 121 177 113.75 170.3125 C111.2265625 166.1328125 111.2265625 166.1328125 110.10644531 164.00878906 C108.42168556 160.95005049 106.31669365 158.40798323 104.125 155.6875 C103.31070042 154.62998526 102.49959118 153.57000757 101.69140625 152.5078125 C93.93634006 142.38126528 86.06636306 132.34187466 78.17724609 122.31958008 C74.49803141 117.64210297 70.84009799 112.94828318 67.1875 108.25 C66.60492432 107.50073242 66.02234863 106.75146484 65.42211914 105.97949219 C62.33611037 102.00916872 59.25284636 98.03673366 56.171875 94.0625 C55.54643799 93.25651367 54.92100098 92.45052734 54.27661133 91.62011719 C53.08543602 90.08501433 51.89511381 88.54924897 50.70581055 87.01269531 C50.162229 86.31241211 49.61864746 85.61212891 49.05859375 84.890625 C48.58736084 84.28250977 48.11612793 83.67439453 47.63061523 83.04785156 C45.46548953 80.32872079 43.2251765 77.67021179 41 75 C40.67 108.66 40.34 142.32 40 177 C26.8 177 13.6 177 0 177 C0 118.59 0 60.18 0 0 Z " fill="#000000" transform="translate(1274,44)"/>
<path d="M0 0 C111.98855786 0 111.98855786 0 138.60253906 25.59716797 C155.77616081 42.83679595 163.41263158 64.07393481 163.375 88.0625 C163.31050837 106.42764303 160.05530811 120.08673057 151 136 C150.53980469 136.83917969 150.07960938 137.67835938 149.60546875 138.54296875 C142.3785305 150.52964276 131.1546007 159.46359501 119 166 C118.14792969 166.47953125 117.29585937 166.9590625 116.41796875 167.453125 C82.22984912 185.78988706 33.05211911 177 0 177 C0 118.59 0 60.18 0 0 Z M40 36 C40 70.98 40 105.96 40 142 C77.83919367 143.84621106 77.83919367 143.84621106 108.7421875 127.3828125 C120.84837772 114.60638337 122.4917377 99.59945618 122.27734375 82.76953125 C121.92066664 71.79061939 118.18761935 63.02644471 112 54 C111.4225 53.113125 110.845 52.22625 110.25 51.3125 C102.02212459 42.85607249 92.22739841 38.8068496 81 36 C67.47 36 53.94 36 40 36 Z " fill="#000000" transform="translate(1054,280)"/>
<path d="M0 0 C17.4532841 16.98315341 26.60101186 39.47477111 27.34838867 63.75341797 C27.52990238 90.95534112 17.59198077 114.31594598 -1.32324219 133.7565918 C-21.92925469 153.15048592 -47.80891339 158.23111846 -75.07617188 157.57592773 C-97.57289583 156.58633577 -117.20194837 145.82836035 -133.07324219 130.4440918 C-133.98976563 129.6377832 -133.98976563 129.6377832 -134.92480469 128.81518555 C-150.82041224 114.33494031 -158.18904834 91.43081583 -159.27636719 70.54174805 C-159.74447004 46.34649529 -153.28979504 22.47477038 -136.27514648 4.63989258 C-134.88782672 3.2280837 -133.48075617 1.83576878 -132.07324219 0.4440918 C-131.27015625 -0.36930664 -130.46707031 -1.18270508 -129.63964844 -2.02075195 C-116.81277038 -14.34213728 -98.72697627 -22.55155412 -81.07324219 -24.5559082 C-79.60564453 -24.73766602 -79.60564453 -24.73766602 -78.10839844 -24.9230957 C-49.35346757 -27.83768697 -21.30913775 -19.91206892 0 0 Z M-106.07324219 28.4440918 C-116.0928341 41.14218848 -119.13023916 56.57026229 -118.07324219 72.4440918 C-116.25509138 84.64976597 -112.48954704 94.59799514 -105.07324219 104.4440918 C-104.61820313 105.05124023 -104.16316406 105.65838867 -103.69433594 106.28393555 C-96.24783266 114.85810773 -83.43591968 120.20428988 -72.34667969 121.3269043 C-58.11283008 121.83646932 -44.23000848 119.98587533 -33.09277344 110.37768555 C-20.05356723 97.89333917 -14.22852967 84.04393804 -13.69824219 65.8815918 C-14.16883529 50.48378547 -19.07249421 35.5793623 -29.91699219 24.33862305 C-51.81576827 5.09785059 -86.47769494 7.1075413 -106.07324219 28.4440918 Z " fill="#000000" transform="translate(1783.0732421875,302.555908203125)"/>
<path d="M0 0 C95.84139785 0 95.84139785 0 113 13 C114.03125 13.7425 115.0625 14.485 116.125 15.25 C125.1017348 23.83644198 130.79526749 35.04166523 131.203125 47.51171875 C131.47544362 65.5003585 131.47544362 65.5003585 128 73 C127.67128906 73.73863281 127.34257813 74.47726562 127.00390625 75.23828125 C120.27083321 88.72772515 108.8359834 96.83206053 95 102 C92.67201985 102.68512576 90.33942406 103.35503182 88 104 C88.51832397 104.66080566 88.51832397 104.66080566 89.04711914 105.33496094 C95.95719306 114.15536703 102.79948654 123.01909663 109.5 132 C114.32831793 138.47112214 119.21414054 144.88963963 124.1875 151.25 C128.79927956 157.15096078 133.37014144 163.07938993 137.875 169.0625 C138.39344482 169.74795898 138.91188965 170.43341797 139.44604492 171.13964844 C143 175.87988332 143 175.87988332 143 177 C136.42351628 177.48657269 129.85171717 177.81622833 123.26123047 178.04370117 C121.02704707 178.13857745 118.7940228 178.26776427 116.56396484 178.43334961 C98.59935741 179.73262596 98.59935741 179.73262596 92.65518188 175.21981812 C88.45622942 170.79726109 85.38327002 165.80667047 82.44065857 160.49252319 C80.0843644 156.41583356 77.25153331 152.70519585 74.4375 148.9375 C73.3632498 147.45242379 72.29131757 145.96566553 71.22265625 144.4765625 C67.94253526 139.92011819 64.65989827 135.36550141 61.375 130.8125 C60.57690918 129.70442993 60.57690918 129.70442993 59.76269531 128.57397461 C57.11198562 124.89942221 54.44364538 121.24001358 51.73828125 117.60546875 C50.96701904 116.56652466 50.96701904 116.56652466 50.18017578 115.5065918 C49.20744809 114.19896194 48.23074543 112.89427674 47.24951172 111.59301758 C44 107.22149083 44 107.22149083 44 105 C42.68 105 41.36 105 40 105 C40 128.76 40 152.52 40 177 C26.8 177 13.6 177 0 177 C0 118.59 0 60.18 0 0 Z M40 32 C40 46.19 40 60.38 40 75 C45.259375 75.061875 50.51875 75.12375 55.9375 75.1875 C57.578396 75.21481201 59.21929199 75.24212402 60.90991211 75.27026367 C73.39643463 75.47723508 73.39643463 75.47723508 84.33984375 70.1328125 C84.86707031 69.47023438 85.39429688 68.80765625 85.9375 68.125 C86.48277344 67.46757812 87.02804687 66.81015625 87.58984375 66.1328125 C91.4241097 60.33361801 91.75240835 54.78119929 91 48 C89.25384503 41.89368561 85.36882487 37.33164231 80 34 C75.27360195 32.08127603 71.01420888 31.73141055 65.9765625 31.8046875 C65.31422607 31.80670166 64.65188965 31.80871582 63.96948242 31.81079102 C61.52125005 31.82116845 59.07311726 31.84909036 56.625 31.875 C51.13875 31.91625 45.6525 31.9575 40 32 Z " fill="#000000" transform="translate(1834,280)"/>
<path d="M0 0 C100.71399916 0 100.71399916 0 117.81640625 16.625 C126.05755093 25.58853482 131.07266221 35.71277424 132 48 C132.0515625 48.63679688 132.103125 49.27359375 132.15625 49.9296875 C132.74628415 63.35296433 128.46677599 75.98476601 119.875 86.1875 C112.54567874 93.93008316 103.92295792 98.42705781 94 102 C92.33124615 102.66142484 90.66401781 103.32674898 89 104 C99.92776679 118.63244531 110.99885277 133.15430128 122.09130859 147.66210938 C123.14420278 149.03934264 124.19662224 150.41693898 125.24853516 151.79492188 C128.04973025 155.46187698 130.86459926 159.11748891 133.6953125 162.76171875 C134.60277222 163.93492676 134.60277222 163.93492676 135.52856445 165.13183594 C136.69503403 166.63945038 137.86529545 168.14414058 139.03979492 169.64550781 C139.55904541 170.31807617 140.0782959 170.99064453 140.61328125 171.68359375 C141.07516846 172.27712646 141.53705566 172.87065918 142.01293945 173.48217773 C143 175 143 175 143 177 C136.45381212 177.25455602 129.90890797 177.42907075 123.35888672 177.54931641 C121.13346679 177.59946034 118.90837396 177.66759769 116.68408203 177.75439453 C98.22551703 178.45639812 98.22551703 178.45639812 92.87963867 174.95800781 C90.81538663 172.39502166 89.39892147 169.96971838 88 167 C87.18983444 165.84510914 86.35577834 164.70622019 85.48828125 163.59375 C84.77027344 162.5728125 84.05226563 161.551875 83.3125 160.5 C82.46145186 159.29651111 81.6098613 158.09340565 80.7578125 156.890625 C80.3134082 156.26220703 79.86900391 155.63378906 79.41113281 154.98632812 C76.85782276 151.39225708 74.27150144 147.82203601 71.6875 144.25 C70.58200271 142.72137481 69.47653424 141.19272877 68.37109375 139.6640625 C67.53940674 138.51405762 67.53940674 138.51405762 66.69091797 137.34082031 C64.99054058 134.98690487 63.29361754 132.63053624 61.59765625 130.2734375 C58.89905309 126.52370475 56.19297609 122.77950563 53.47949219 119.04052734 C52.51974039 117.71683007 51.56193769 116.39171656 50.60644531 115.06494141 C49.36989112 113.35035681 48.12414512 111.64292281 46.875 109.9375 C46.19179687 108.99777344 45.50859375 108.05804688 44.8046875 107.08984375 C43.09211894 104.74663164 43.09211894 104.74663164 40 104 C40 128.09 40 152.18 40 177 C26.8 177 13.6 177 0 177 C0 118.59 0 60.18 0 0 Z M40 31 C40 45.52 40 60.04 40 75 C44.57875 75.04125 49.1575 75.0825 53.875 75.125 C55.29796387 75.14320801 56.72092773 75.16141602 58.18701172 75.18017578 C70.04837689 75.23158111 78.80766637 74.77012906 87.75 66.4375 C91.4091241 61.7599789 92.29686418 55.53207786 91.80859375 49.72265625 C90.3437305 42.84703687 86.73373285 37.91571999 81 34 C75.16781664 31.1586799 69.25660689 30.87497177 62.8515625 30.90234375 C61.64838379 30.90484131 60.44520508 30.90733887 59.20556641 30.90991211 C57.69397949 30.91901611 56.18239258 30.92812012 54.625 30.9375 C47.385625 30.9684375 47.385625 30.9684375 40 31 Z " fill="#000000" transform="translate(1115,44)"/>
<path d="M0 0 C99.00662175 0 99.00662175 0 117.75 17.0625 C126.80935726 26.56100025 131.41769399 39.25253057 131.3125 52.25 C131.30404053 53.35807007 131.30404053 53.35807007 131.29541016 54.48852539 C130.99674607 68.11322608 126.2772107 79.12236691 117.015625 89.12890625 C108.7150962 96.8342421 98.50969358 100.40006732 88 104 C95.80605189 114.4795834 103.66542783 124.90807171 111.72045898 135.19775391 C116.76340424 141.65652395 121.67506348 148.20909792 126.57250977 154.77856445 C130.90596183 160.57881138 135.32328352 166.30319341 139.85229492 171.95214844 C143 175.89874191 143 175.89874191 143 177 C136.34858879 177.33154695 129.69932465 177.55801612 123.04150391 177.71411133 C120.78092875 177.7792115 118.52089531 177.86772928 116.26220703 177.98071289 C98.07146203 178.86738132 98.07146203 178.86738132 93.04760742 175.81298828 C89.37312812 172.44994317 87.24096149 168.39627099 85 164 C83.9915049 162.54017689 82.95917578 161.09614263 81.890625 159.6796875 C81.00806128 158.41309633 80.12784684 157.1448649 79.25 155.875 C74.30729912 148.79924476 69.2253841 141.83661762 64.08886719 134.90063477 C60.51427548 130.06896171 56.98161766 125.21156161 53.5 120.3125 C52.7071451 119.20043965 51.91418227 118.08845624 51.12109375 116.9765625 C49.79767872 115.11939445 48.47690544 113.26033762 47.16015625 111.3984375 C46.63292969 110.66882813 46.10570312 109.93921875 45.5625 109.1875 C45.13066406 108.58292969 44.69882812 107.97835937 44.25390625 107.35546875 C42.93405632 105.71042882 42.93405632 105.71042882 40 105 C40 128.76 40 152.52 40 177 C26.8 177 13.6 177 0 177 C0 118.59 0 60.18 0 0 Z M40 32 C40 46.19 40 60.38 40 75 C45.094375 75.061875 50.18875 75.12375 55.4375 75.1875 C57.82053345 75.22846802 57.82053345 75.22846802 60.25170898 75.27026367 C70.25494016 75.32896141 78.94409525 74.89938476 86.55859375 67.7265625 C90.55458071 62.94004154 91.54650646 57.33910625 91.2734375 51.2265625 C90.39321533 44.05903914 87.67660052 40.11963717 82.23046875 35.4453125 C77.08176348 32.10902362 71.96653218 31.71755817 65.9765625 31.8046875 C65.31422607 31.80670166 64.65188965 31.80871582 63.96948242 31.81079102 C61.52125005 31.82116845 59.07311726 31.84909036 56.625 31.875 C51.13875 31.91625 45.6525 31.9575 40 32 Z " fill="#000000" transform="translate(742,280)"/>
<path d="M0 0 C13.2 0 26.4 0 40 0 C40 22.77 40 45.54 40 69 C62.44 69 84.88 69 108 69 C108 46.23 108 23.46 108 0 C121.53 0 135.06 0 149 0 C149 58.41 149 116.82 149 177 C135.47 177 121.94 177 108 177 C108 152.58 108 128.16 108 103 C85.56 103 63.12 103 40 103 C40 127.42 40 151.84 40 177 C26.8 177 13.6 177 0 177 C0 118.59 0 60.18 0 0 Z " fill="#000000" transform="translate(759,44)"/>
<path d="M0 0 C1.38130679 0.00138269 1.38130679 0.00138269 2.79051876 0.00279331 C3.84366268 0.00141865 4.8968066 0.00004398 5.98186398 -0.00137234 C7.72973454 0.00402058 7.72973454 0.00402058 9.51291561 0.00952244 C10.73225796 0.00937641 11.9516003 0.00923038 13.20789242 0.00907993 C16.56105596 0.0096589 19.91415859 0.01468815 23.26731133 0.02165389 C26.76803646 0.027888 30.26876233 0.02849127 33.76949215 0.0296793 C40.4028774 0.03279245 47.03624625 0.04100561 53.66962427 0.05102879 C61.21968292 0.06219044 68.76974233 0.06770051 76.31980717 0.07272422 C91.85480952 0.08318824 107.38978927 0.10153351 122.92478085 0.12304783 C122.92478085 11.67304783 122.92478085 23.22304783 122.92478085 35.12304783 C94.87478085 35.12304783 66.82478085 35.12304783 37.92478085 35.12304783 C37.92478085 46.67304783 37.92478085 58.22304783 37.92478085 70.12304783 C63.66478085 70.12304783 89.40478085 70.12304783 115.92478085 70.12304783 C115.92478085 81.34304783 115.92478085 92.56304783 115.92478085 104.12304783 C90.18478085 104.12304783 64.44478085 104.12304783 37.92478085 104.12304783 C37.92478085 116.66304783 37.92478085 129.20304783 37.92478085 142.12304783 C66.63478085 142.12304783 95.34478085 142.12304783 124.92478085 142.12304783 C124.92478085 153.67304783 124.92478085 165.22304783 124.92478085 177.12304783 C82.68478085 177.12304783 40.44478085 177.12304783 -3.07521915 177.12304783 C-3.11552219 133.02705028 -3.11552219 133.02705028 -3.12404728 114.60937595 C-3.12999082 101.87084649 -3.136994 89.13232362 -3.15065861 76.39379978 C-3.16060384 67.11817862 -3.1670722 57.84256278 -3.16930765 48.56693643 C-3.17061503 43.65237102 -3.1737026 38.73782085 -3.18094921 33.82326031 C-3.1877069 29.20310435 -3.18983663 24.58297 -3.18832684 19.96280956 C-3.18860328 18.26198045 -3.19060989 16.56115067 -3.19442463 14.86032581 C-3.19935796 12.54850446 -3.19821879 10.23676602 -3.19547367 7.92494297 C-3.19639546 6.62798024 -3.19731726 5.33101751 -3.19826698 3.99475288 C-3.03480878 0.17994564 -3.03480878 0.17994564 0 0 Z " fill="#000000" transform="translate(903.0752191543579,279.8769521713257)"/>
<path d="M0 0 C13.2 0 26.4 0 40 0 C40.0093457 3.45637939 40.01869141 6.91275879 40.02832031 10.47387695 C40.0621473 21.91723104 40.11752911 33.36042502 40.18390274 44.80363178 C40.223607 51.73896452 40.25604295 58.67418521 40.27099609 65.60961914 C40.2854583 72.30767121 40.32066751 79.0053258 40.36830902 85.70323753 C40.38310093 88.25354167 40.39103975 90.80389543 40.39188385 93.35424232 C40.39426172 96.93746238 40.42140978 100.51972857 40.45410156 104.1027832 C40.4490712 105.14792084 40.44404083 106.19305847 40.43885803 107.26986694 C40.57165434 116.73041429 42.97552701 127.16352993 50 134 C59.31127213 140.9472704 68.46725734 143.19254085 80 142 C89.22623547 139.67244515 96.5261242 135.96655158 101.59080029 127.71319199 C105.86055138 119.49245909 106.44525488 110.36207191 106.43237305 101.26464844 C106.4425647 100.16074265 106.45275635 99.05683685 106.46325684 97.91947937 C106.49314963 94.31605803 106.50261645 90.71290353 106.51171875 87.109375 C106.528583 84.5930291 106.54673557 82.07669154 106.56611633 79.56036377 C106.60861157 73.64277416 106.63823524 67.72523261 106.66143972 61.80753827 C106.6912943 54.39894606 106.74146203 46.99051335 106.79101562 39.58203125 C106.87683964 26.38806858 106.94274155 13.19411759 107 0 C120.2 0 133.4 0 147 0 C147.06797748 14.99583215 147.1231324 29.99158426 147.15543652 44.98753452 C147.17084109 51.95195127 147.19180632 58.91626479 147.22631836 65.88061523 C147.2596545 72.61093997 147.27689089 79.34113573 147.28463173 86.07154655 C147.290143 88.62975685 147.30090451 91.18796179 147.31719017 93.74612617 C147.46003289 117.12973552 146.02149159 136.00588253 131 155 C129.88625 156.546875 129.88625 156.546875 128.75 158.125 C114.63213342 172.88458778 95.42491893 179.51653157 75.328125 180.03125 C54.48698595 180.10655674 34.8016851 174.15416534 19.3828125 159.578125 C5.78492947 144.8656614 -0.54070449 127.46139383 -0.34057617 107.50854492 C-0.34101425 106.33621811 -0.34145233 105.1638913 -0.34190369 103.95603943 C-0.33983514 100.13067207 -0.31659574 96.30575832 -0.29296875 92.48046875 C-0.2873659 89.80861165 -0.28295125 87.13677877 -0.28010559 84.46492004 C-0.27083716 78.182484 -0.24629513 71.90020738 -0.21605712 65.61784106 C-0.18234955 58.45687621 -0.16598629 51.29590314 -0.15097082 44.13487852 C-0.11973989 29.42316014 -0.06479423 14.71161235 0 0 Z " fill="#000000" transform="translate(938,44)"/>
<path d="M0 0 C101.24324324 0 101.24324324 0 118.28515625 16.16796875 C120.31398701 18.37124103 122.18151932 20.6210287 124 23 C124.48210937 23.62519531 124.96421875 24.25039063 125.4609375 24.89453125 C134.01477396 37.20687161 135.31814098 53.48174802 133.3125 67.9375 C130.59236107 82.52046706 122.98816197 94.292622 111 103 C94.88926442 112.61633619 80.14394335 113.41176798 61.75 113.1875 C54.5725 113.125625 47.395 113.06375 40 113 C40 134.12 40 155.24 40 177 C26.8 177 13.6 177 0 177 C0 118.59 0 60.18 0 0 Z M40 32 C40 48.5 40 65 40 82 C45.07375 82.061875 50.1475 82.12375 55.375 82.1875 C56.95458496 82.21481201 58.53416992 82.24212402 60.16162109 82.27026367 C70.28281085 82.32976997 79.8038736 82.05429643 87.53125 74.74609375 C92.27245366 69.10960961 94.3563715 62.52470361 94.20703125 55.20703125 C93.55382838 48.24364216 90.79563631 43.15653568 86.40234375 37.82421875 C77.22848477 30.85805267 67.32268021 31.51325943 56.375 31.75 C50.97125 31.8325 45.5675 31.915 40 32 Z " fill="#000000" transform="translate(587,280)"/>
<path d="M0 0 C2.62288307 2.13927851 5.20228704 4.3095519 7.73828125 6.55078125 C7.27876096 10.88184033 4.46129855 13.29535053 1.53125 16.2265625 C0.74854485 17.02068794 0.74854485 17.02068794 -0.04997253 17.83085632 C-1.15321486 18.94488519 -2.2604391 20.05498289 -3.37133789 21.16137695 C-5.07187768 22.86094152 -6.7499622 24.58072622 -8.42773438 26.30273438 C-9.50260356 27.3828084 -10.57873389 28.46162912 -11.65625 29.5390625 C-12.15743851 30.05664627 -12.65862701 30.57423004 -13.17500305 31.10749817 C-16.69184225 34.55572553 -16.69184225 34.55572553 -19.4284668 34.53198242 C-21.26171875 33.55078125 -21.26171875 33.55078125 -24.19921875 30.86328125 C-34.09960874 22.08408927 -47.59683714 18.96715889 -60.56640625 19.30078125 C-75.441039 20.68045733 -87.08791674 25.49689256 -97.26171875 36.55078125 C-108.28697422 51.40885086 -110.33207251 68.82955841 -107.96142578 86.83105469 C-105.57047149 99.26401702 -98.5535783 111.12827626 -88.32421875 118.67578125 C-74.56129981 127.16633821 -59.07911085 128.7680165 -43.34765625 125.81640625 C-35.01564548 123.43583174 -27.87519831 119.60238643 -21 114.38671875 C-20.29528564 113.85353027 -19.59057129 113.3203418 -18.86450195 112.77099609 C-18.07112427 112.16698975 -18.07112427 112.16698975 -17.26171875 111.55078125 C-13.52470888 115.164376 -9.80428711 118.79395856 -6.09838867 122.43945312 C-4.83493401 123.67773289 -3.56703254 124.91149209 -2.29467773 126.140625 C-0.46846873 127.90631636 1.34122897 129.68754843 3.1484375 131.47265625 C3.72231705 132.02072937 4.29619659 132.56880249 4.88746643 133.13348389 C6.46508789 134.70996094 6.46508789 134.70996094 8.73828125 137.55078125 C8.4049906 140.4310224 7.95997563 141.338627 5.83203125 143.375 C-18.41473153 160.7932317 -45.35815946 168.09452373 -75.12866211 163.72827148 C-92.31557886 160.78739469 -108.26366422 153.17282023 -121.26171875 141.55078125 C-122.09445312 140.81214844 -122.9271875 140.07351563 -123.78515625 139.3125 C-141.11824294 123.01939851 -150.10332199 100.32990287 -151.1875 76.84716797 C-151.90172098 51.8940724 -144.12313767 29.10758964 -127.26171875 10.55078125 C-126.71128906 9.91914063 -126.16085937 9.2875 -125.59375 8.63671875 C-94.96694001 -24.48560909 -34.96083673 -27.05390464 0 0 Z " fill="#000000" transform="translate(1456.26171875,295.44921875)"/>
<path d="M0 0 C0.56614014 0.41596436 1.13228027 0.83192871 1.71557617 1.26049805 C3.2734375 2.48046875 3.2734375 2.48046875 5.625 4.8125 C5.625 8.8125 5.625 8.8125 3.33007812 11.56152344 C2.28234524 12.60862388 1.22362126 13.64480045 0.15625 14.671875 C-0.39865112 15.22111633 -0.95355225 15.77035767 -1.52526855 16.33624268 C-3.29934729 18.08793497 -5.08682564 19.8252106 -6.875 21.5625 C-8.08033615 22.74777418 -9.28477492 23.93396166 -10.48828125 25.12109375 C-13.44021332 28.02892842 -16.40423923 30.92390921 -19.375 33.8125 C-21.99459309 32.59150322 -23.68651942 31.53213252 -25.875 29.5625 C-37.8791423 19.34685365 -52.29044574 17.86229186 -67.375 18.8125 C-80.13844412 20.72105239 -90.72325085 26.18780328 -99.375 35.8125 C-108.9682319 49.54358514 -111.92858924 65.92768648 -109.94921875 82.34375 C-107.65470018 94.84394932 -102.34347908 107.82654782 -91.94140625 115.640625 C-78.30356336 124.84858701 -64.00654679 127.45223875 -47.82421875 125.3515625 C-37.00060423 123.14795236 -28.40324356 118.30552733 -20.375 110.8125 C-16.36982604 112.41623148 -13.6978902 115.23363986 -10.734375 118.2578125 C-10.20732971 118.78768768 -9.68028442 119.31756287 -9.13726807 119.86349487 C-7.46174325 121.55017825 -5.79332278 123.24369564 -4.125 124.9375 C-2.98744149 126.08509388 -1.84942564 127.23223461 -0.7109375 128.37890625 C2.07303465 131.18488137 4.8506576 133.99700464 7.625 136.8125 C2.76462243 147.33218396 -13.19020859 153.88311581 -23.61328125 158.1328125 C-48.22727768 166.75249997 -77.65971542 166.10606417 -101.42578125 154.98828125 C-109.11024422 151.16705078 -116.01440289 146.59203114 -122.375 140.8125 C-123.27863281 140.00167969 -124.18226563 139.19085938 -125.11328125 138.35546875 C-141.6418661 122.74132843 -151.85985964 100.96129683 -152.578125 78.09765625 C-152.97241677 51.81823503 -146.20983392 27.84452681 -127.83544922 8.31298828 C-94.58360679 -25.85047269 -37.6737132 -28.10381327 0 0 Z " fill="#000000" transform="translate(730.375,60.1875)"/>
<path d="M0 0 C49.5 0 99 0 150 0 C150 11.88 150 23.76 150 36 C131.85 36 113.7 36 95 36 C95 82.53 95 129.06 95 177 C81.8 177 68.6 177 55 177 C55 130.47 55 83.94 55 36 C36.85 36 18.7 36 0 36 C0 24.12 0 12.24 0 0 Z " fill="#000000" transform="translate(1471,280)"/>
<path d="M0 0 C13.2 0 26.4 0 40 0 C41 1 41 1 41.12304783 3.87170506 C41.12166514 5.81714915 41.12166514 5.81714915 41.12025452 7.80189514 C41.12110894 8.52145478 41.12196337 9.24101442 41.12284368 9.9823789 C41.1245006 12.4115358 41.11897368 14.84062477 41.11352539 17.26977539 C41.11324354 19.00389097 41.11340121 20.73800668 41.1139679 22.47212219 C41.11425595 27.19506321 41.10835799 31.91797906 41.10139394 36.6409142 C41.09516166 41.5710279 41.0945567 46.50114212 41.09336853 51.43125916 C41.09025484 60.77396362 41.08204095 70.11665644 41.07201904 79.45935577 C41.06085907 90.09279055 41.05534775 100.72622587 41.05032361 111.35966504 C41.03985836 133.23978464 41.02151241 155.11988828 41 177 C27.47 177 13.94 177 0 177 C0 118.59 0 60.18 0 0 Z " fill="#000000" transform="translate(1241,280)"/>
</svg>
