<?xml version="1.0" encoding="UTF-8"?>
<svg version="1.1" xmlns="http://www.w3.org/2000/svg" width="512" height="512">
<path d="M0 0 C1.54231001 -0.00604398 3.08461403 -0.01382343 4.62690747 -0.02318513 C8.85800874 -0.04375102 13.08877118 -0.03938027 17.31990027 -0.03082395 C21.88580974 -0.02589049 26.45163752 -0.04391646 31.01751709 -0.05889893 C39.95985447 -0.08440008 48.90207176 -0.08797944 57.84443937 -0.0832984 C65.11299277 -0.07973254 72.38150971 -0.08323026 79.65005875 -0.09174728 C80.68449691 -0.09293766 81.71893508 -0.09412804 82.78471986 -0.09535449 C84.88617555 -0.09777799 86.98763123 -0.10020626 89.08908691 -0.10263924 C108.79749235 -0.12439309 128.50582936 -0.12006392 148.21423866 -0.10786955 C166.24294212 -0.097531 184.27142947 -0.120042 202.30009018 -0.15806599 C220.81336889 -0.19681266 239.32654532 -0.21333658 257.83986485 -0.20581949 C268.23311736 -0.20199383 278.62618592 -0.20698615 289.01940536 -0.23524857 C297.86732665 -0.25906538 306.71495076 -0.26189848 315.56287609 -0.23766823 C320.07652685 -0.22588278 324.58963391 -0.22371215 329.1032486 -0.24767303 C333.23763349 -0.26936555 337.37101996 -0.26321709 341.50535788 -0.23514967 C342.99856891 -0.22984851 344.49185787 -0.23461223 345.98499249 -0.25062139 C353.77277134 -0.32830582 360.03236093 -0.22868425 366.28835845 4.78704977 C371.22872234 9.73428054 372.47241756 13.97837405 372.564592 20.92628181 C372.55703336 21.87248992 372.54947471 22.81869802 372.54168701 23.7935791 C372.54933811 24.81409807 372.5569892 25.83461704 372.56487215 26.88606083 C372.58547489 30.29840711 372.57755925 33.71007672 372.5696106 37.12246704 C372.57830677 39.57192608 372.58867372 42.02137968 372.60058594 44.4708252 C372.62458747 50.4293429 372.62967124 56.38759565 372.62498541 62.34613739 C372.62141519 67.19097482 372.6249266 72.03575762 372.6334343 76.88058853 C372.63462467 77.57088191 372.63581505 78.26117528 372.6370415 78.97238664 C372.63946508 80.37485432 372.64189335 81.777322 372.64432625 83.17978968 C372.66606557 96.32425059 372.66175791 109.46860883 372.64955656 122.61307551 C372.63921993 134.6279526 372.66172626 146.64250529 372.699753 158.65731822 C372.73853334 171.00525948 372.75501768 183.35304738 372.7475065 195.70104992 C372.74368583 202.6290747 372.74862406 209.55682344 372.77693558 216.48479843 C372.80329327 223.00040619 372.79821181 229.51547263 372.7721138 236.03111649 C372.76738142 238.42037932 372.77285483 240.8096878 372.78936005 243.19889832 C372.81029413 246.46509741 372.79410004 249.72911786 372.76873779 252.99523926 C372.78348636 253.93698592 372.79823493 254.87873258 372.81343043 255.84901702 C372.70001665 262.80859392 370.69660744 267.35051038 366.02029419 272.52139282 C359.63102296 278.02175825 352.10783184 277.0874561 344.04058838 277.04278564 C342.49827837 277.04882963 340.95597435 277.05660908 339.41368091 277.06597078 C335.18257964 277.08653667 330.9518172 277.08216591 326.7206881 277.07360959 C322.15477864 277.06867613 317.58895086 277.08670211 313.02307129 277.10168457 C304.08073391 277.12718572 295.13851662 277.13076508 286.19614901 277.12608404 C278.92759561 277.12251819 271.65907867 277.12601591 264.39052963 277.13453293 C263.35609146 277.13572331 262.3216533 277.13691368 261.25586852 277.13814013 C259.15441283 277.14056363 257.05295715 277.1429919 254.95150147 277.14542489 C235.24309603 277.16717873 215.53475902 277.16284956 195.82634972 277.1506552 C177.79764626 277.14031664 159.76915891 277.16282765 141.7404982 277.20085163 C123.22721949 277.2395983 104.71404305 277.25612222 86.20072353 277.24860513 C75.80747102 277.24477948 65.41440246 277.24977179 55.02118301 277.27803421 C46.17326173 277.30185102 37.32563762 277.30468412 28.47771229 277.28045388 C23.96406153 277.26866842 19.45095447 277.26649779 14.93733978 277.29045868 C10.80295489 277.3121512 6.66956842 277.30600273 2.5352305 277.27793531 C1.04201947 277.27263415 -0.45126949 277.27739787 -1.94440411 277.29340704 C-9.73218296 277.37109147 -15.99177255 277.2714699 -22.24777007 272.25573587 C-27.18813396 267.3085051 -28.43182918 263.06441159 -28.52400362 256.11650383 C-28.51644498 255.17029573 -28.50888633 254.22408762 -28.50109863 253.24920654 C-28.50874973 252.22868757 -28.51640082 251.2081686 -28.52428377 250.15672481 C-28.54488651 246.74437854 -28.53697087 243.33270892 -28.52902222 239.9203186 C-28.53771839 237.47085956 -28.54808534 235.02140596 -28.55999756 232.57196045 C-28.58399909 226.61344274 -28.58908286 220.65519 -28.58439703 214.69664825 C-28.58082681 209.85181082 -28.58433822 205.00702802 -28.59284592 200.16219711 C-28.59463148 199.12675705 -28.59463148 199.12675705 -28.59645312 198.07039901 C-28.5988767 196.66793132 -28.60130497 195.26546364 -28.60373788 193.86299597 C-28.6254772 180.71853505 -28.62116953 167.57417682 -28.60896818 154.42971013 C-28.59863155 142.41483305 -28.62113789 130.40028035 -28.65916462 118.38546742 C-28.69794496 106.03752616 -28.7144293 93.68973827 -28.70691812 81.34173572 C-28.70309745 74.41371094 -28.70803568 67.48596221 -28.7363472 60.55798721 C-28.76270489 54.04237945 -28.75762343 47.52731302 -28.73152542 41.01166916 C-28.72679304 38.62240632 -28.73226646 36.23309784 -28.74877167 33.84388733 C-28.76970575 30.57768823 -28.75351166 27.31366779 -28.72814941 24.04754639 C-28.74289798 23.10579972 -28.75764655 22.16405306 -28.77284205 21.19376862 C-28.65942827 14.23419172 -26.65601906 9.69227526 -21.97970581 4.52139282 C-15.59043458 -0.9789726 -8.06724346 -0.04467045 0 0 Z M12.02029419 40.52139282 C12.02029419 105.20139282 12.02029419 169.88139282 12.02029419 236.52139282 C117.62029419 236.52139282 223.22029419 236.52139282 332.02029419 236.52139282 C332.02029419 171.84139282 332.02029419 107.16139282 332.02029419 40.52139282 C226.42029419 40.52139282 120.82029419 40.52139282 12.02029419 40.52139282 Z " fill="#FB831E" transform="translate(83.97970581054688,127.47860717773438)"/>
<path d="M0 0 C1.24104113 0.79092482 2.47198105 1.59785237 3.6940918 2.41772461 C4.37743591 2.86053268 5.06078003 3.30334076 5.76483154 3.75956726 C8.00687212 5.22109907 10.2324771 6.70525326 12.45581055 8.19506836 C13.2109494 8.69784302 13.96608826 9.20061768 14.74411011 9.71862793 C19.69062225 13.01599967 24.61381957 16.34693095 29.53009033 19.68917847 C50.49706865 33.93810526 71.62902709 47.9302367 92.82577515 61.8343811 C93.94032578 62.56580826 93.94032578 62.56580826 95.07739258 63.31201172 C96.15491791 64.0130452 96.15491791 64.0130452 97.25421143 64.72824097 C98.81349003 65.76711882 100.35160478 66.83808875 101.87371826 67.93069458 C102.66377258 68.4904599 103.4538269 69.05022522 104.26782227 69.62695312 C104.97558807 70.14209976 105.68335388 70.6572464 106.41256714 71.18800354 C108.40196459 72.40290177 108.40196459 72.40290177 110.59625244 71.91763306 C112.69199263 71.10329557 114.52188936 70.1266378 116.44799805 68.96459961 C117.22369141 68.49884521 117.99938477 68.03309082 118.79858398 67.55322266 C119.63421875 67.04315674 120.46985352 66.53309082 121.33081055 66.00756836 C122.65387207 65.206698 122.65387207 65.206698 124.00366211 64.38964844 C132.33250306 59.32237456 140.5494844 54.08304427 148.76049805 48.82788086 C154.59300265 45.09870434 160.45766697 41.42232221 166.33081055 37.75756836 C167.82692871 36.82400513 167.82692871 36.82400513 169.35327148 35.87158203 C171.37656392 34.6095493 173.4000017 33.34774957 175.42358398 32.08618164 C179.43915 29.58178757 183.45224807 27.07345657 187.46508789 24.56469727 C189.44696555 23.3257406 191.42905932 22.08712955 193.41137695 20.84887695 C198.66410382 17.56754388 203.91358632 14.28115281 209.15893555 10.98803711 C210.25463867 10.3009668 211.3503418 9.61389648 212.47924805 8.90600586 C214.58433904 7.58586405 216.68854806 6.26431451 218.79174805 4.94116211 C220.21100586 4.05170898 220.21100586 4.05170898 221.65893555 3.14428711 C222.49070312 2.62181396 223.3224707 2.09934082 224.17944336 1.56103516 C230.86883616 -2.45303099 236.67830762 -2.76964935 244.45581055 -1.80493164 C249.62837979 0.23936085 254.40554922 3.8195214 256.8581543 8.95288086 C258.45082005 14.92797983 259.10848035 21.76557408 256.37036133 27.44750977 C252.84636041 33.21657238 248.8760031 36.48686973 243.08081055 39.82006836 C241.37608292 40.84821603 239.67167063 41.8768867 237.9675293 42.90600586 C237.06953613 43.43935547 236.17154297 43.97270508 235.24633789 44.5222168 C231.41841354 46.816962 227.64491908 49.19454269 223.86816406 51.57226562 C214.33365927 57.57466089 204.74449001 63.48762568 195.14331055 69.38256836 C187.67893698 73.9658594 180.22989675 78.56951879 172.83081055 83.25756836 C172.09024414 83.72670654 171.34967773 84.19584473 170.58666992 84.67919922 C169.83579102 85.15494385 169.08491211 85.63068848 168.3112793 86.12084961 C158.72341526 92.19523575 149.10957031 98.2259362 139.45581055 104.19506836 C138.71862793 104.65526367 137.98144531 105.11545898 137.22192383 105.58959961 C125.14168496 113.09322346 113.82762726 117.07766226 99.70581055 114.13256836 C85.46664675 110.15860524 72.97322785 99.59479399 60.89331055 91.38256836 C57.97990597 89.40832881 55.0655339 87.4355236 52.15106201 85.46286011 C50.22911337 84.16193882 48.3074395 82.86061148 46.38604736 81.55886841 C39.14099423 76.6518581 31.86977932 71.78655381 24.58081055 66.94506836 C22.51819808 65.56763259 20.45570069 64.19002449 18.39331055 62.81225586 C13.71555148 59.69047013 9.02190913 56.59411195 4.3208313 53.50756836 C0.91023954 51.26322682 -2.49104619 49.00502779 -5.89093018 46.74450684 C-7.55775925 45.64058416 -9.22838797 44.54237429 -10.90301514 43.45031738 C-13.24937991 41.91918739 -15.58135627 40.36810776 -17.91137695 38.81225586 C-18.60908203 38.36391388 -19.30678711 37.9155719 -20.02563477 37.4536438 C-25.8927039 33.48558862 -29.84556832 28.7193973 -31.2434082 21.66772461 C-31.2156104 13.57856421 -30.33251081 8.08698384 -24.54418945 2.19506836 C-17.61811702 -3.72095185 -7.99262143 -4.07036235 0 0 Z " fill="#FB801F" transform="translate(142.544189453125,189.804931640625)"/>
<path d="M0 0 C0.66 0.33 1.32 0.66 2 1 C-0.64 3.64 -3.28 6.28 -6 9 C-6 6 -6 6 -3.5625 3.375 C-2.716875 2.59125 -1.87125 1.8075 -1 1 C-0.67 0.67 -0.34 0.34 0 0 Z " fill="#FB6818" transform="translate(121,190)"/>
<path d="M0 0 C0.66 0.33 1.32 0.66 2 1 C-0.64 3.64 -3.28 6.28 -6 9 C-6 6 -6 6 -3.5625 3.375 C-2.716875 2.59125 -1.87125 1.8075 -1 1 C-0.67 0.67 -0.34 0.34 0 0 Z " fill="#FC4A01" transform="translate(65,130)"/>
</svg>
