<?xml version="1.0" encoding="UTF-8"?>
<svg version="1.1" xmlns="http://www.w3.org/2000/svg" width="64" height="64">
<path d="M0 0 C1.69154647 -0.01653294 3.38302383 -0.04378815 5.07421875 -0.08203125 C7.51892155 -0.13700599 9.96198756 -0.15870539 12.40722656 -0.17333984 C13.1574408 -0.19600922 13.90765503 -0.21867859 14.68060303 -0.24203491 C18.65811224 -0.2261545 21.20518 0.28542568 24.25976562 2.7578125 C27.7507587 6.32335352 27.90941896 7.9331412 27.88574219 12.85791016 C27.87317383 13.90591797 27.87317383 13.90591797 27.86035156 14.97509766 C27.85583984 15.68150391 27.85132813 16.38791016 27.84667969 17.11572266 C27.83489031 18.86055041 27.81695481 20.60533465 27.79785156 22.35009766 C25.86035156 22.91259766 25.86035156 22.91259766 23.79785156 23.35009766 C21.43391635 20.98616244 21.81396655 15.55749897 21.39550781 12.35400391 C21.06681661 9.24870778 21.06681661 9.24870778 18.79785156 7.35009766 C13.73069294 5.60416497 8.14732075 6.16572789 2.86035156 6.16259766 C1.77560547 6.15035156 0.69085937 6.13810547 -0.42675781 6.12548828 C-1.47541016 6.12355469 -2.5240625 6.12162109 -3.60449219 6.11962891 C-4.55831787 6.11552002 -5.51214355 6.11141113 -6.49487305 6.10717773 C-9.43487179 6.37097959 -11.5673354 7.03225811 -14.20214844 8.35009766 C-16.74455812 12.54507364 -16.8051263 17.55448818 -17.20214844 22.35009766 C-19.13964844 22.91259766 -19.13964844 22.91259766 -21.20214844 23.35009766 C-23.39009792 21.16214818 -22.56758122 16.10886178 -22.59814453 13.0859375 C-22.52888293 9.2340689 -22.34381646 6.47289339 -19.82714844 3.47509766 C-14.12662637 -1.13961069 -7.0411857 0.05043048 0 0 Z " fill="#F9952F" transform="translate(29.2021484375,34.64990234375)"/>
<path d="M0 0 C4.36045847 2.22136563 7.13277421 4.43567029 9 9 C9.58075783 12.96851185 9.40913488 16.05252975 7.8125 19.75 C3.11644489 25.57958565 3.11644489 25.57958565 -1.30078125 26.45703125 C-6.16093924 26.7741584 -9.25424869 26.33617788 -13.0625 23.1875 C-16.32409083 20.0793958 -16.93958349 17.73708138 -17.3125 13.1875 C-17.24803379 8.80379803 -15.88627274 6.35431697 -13 3 C-9.05487821 -0.28760149 -4.99255392 -0.88103893 0 0 Z M-8.75 8.1875 C-11.14444193 10.75510369 -11.14444193 10.75510369 -11.5625 13.5625 C-10.80167555 16.85940593 -9.75181556 18.04476263 -7 20 C-3.34147708 20.60975382 -1.69487121 20.44543026 1.4375 18.4375 C3.32042676 15.98268571 3.32042676 15.98268571 3 12.4375 C2.28410124 9.01114265 2.28410124 9.01114265 0.1875 7.0625 C-3.63964368 5.20360164 -5.48294701 5.58870784 -8.75 8.1875 Z " fill="#FB6A14" transform="translate(36,6)"/>
<path d="M0 0 C1.65322266 0.01740234 1.65322266 0.01740234 3.33984375 0.03515625 C4.99693359 0.04869141 4.99693359 0.04869141 6.6875 0.0625 C7.54214844 0.07410156 8.39679687 0.08570313 9.27734375 0.09765625 C9.27734375 1.74765625 9.27734375 3.39765625 9.27734375 5.09765625 C5.31734375 5.09765625 1.35734375 5.09765625 -2.72265625 5.09765625 C-3.05265625 3.77765625 -3.38265625 2.45765625 -3.72265625 1.09765625 C-2.72265625 0.09765625 -2.72265625 0.09765625 0 0 Z " fill="#FA9C31" transform="translate(28.72265625,42.90234375)"/>
</svg>
